STARTFONT 2.3
FONT -FontForge-Permanent Marker-Book-R-Normal--28-280-72-72-P-161-ISO10646-1
SIZE 28 72 72  2
FONTBOUNDINGBOX 43 40 -8 -9
COMMENT "Generated by fontforge, http://fontforge.sourceforge.net"
COMMENT "Copyright (c) 2010 by Font Diner, Inc. All rights reserved."
STARTPROPERTIES 40
FOUNDRY "FontForge"
FAMILY_NAME "Permanent Marker"
WEIGHT_NAME "Book"
SLANT "R"
SETWIDTH_NAME "Normal"
ADD_STYLE_NAME ""
PIXEL_SIZE 28
POINT_SIZE 280
RESOLUTION_X 72
RESOLUTION_Y 72
SPACING "P"
AVERAGE_WIDTH 161
CHARSET_REGISTRY "ISO10646"
CHARSET_ENCODING "1"
FONTNAME_REGISTRY ""
CHARSET_COLLECTIONS "ISO10646-1"
BITS_PER_PIXEL 2
FONT_NAME "PermanentMarker-Regular"
FACE_NAME "Permanent Marker Regular"
COPYRIGHT "Copyright (c) 2010 by Font Diner, Inc. All rights reserved."
FONT_VERSION "1.001"
FONT_ASCENT 22
FONT_DESCENT 6
UNDERLINE_POSITION -3
UNDERLINE_THICKNESS 2
X_HEIGHT 16
CAP_HEIGHT 19
RAW_ASCENT 799
RAW_DESCENT 200
NORM_SPACE 10
RELATIVE_WEIGHT 40
RELATIVE_SETWIDTH 50
SUPERSCRIPT_X 0
SUPERSCRIPT_Y 13
SUPERSCRIPT_SIZE 17
SUBSCRIPT_X 0
SUBSCRIPT_Y 3
SUBSCRIPT_SIZE 17
AVG_LOWERCASE_WIDTH 159
AVG_UPPERCASE_WIDTH 190
ENDPROPERTIES
CHARS 230
STARTCHAR space
ENCODING 32
SWIDTH 370 0
DWIDTH 10 0
BBX 1 1 0 0
BITMAP
00
ENDCHAR
STARTCHAR exclam
ENCODING 33
SWIDTH 260 0
DWIDTH 7 0
BBX 8 22 0 -1
BITMAP
0024
00BC
00FD
01FD
02FD
02FD
03FC
03F8
0BF8
0BF4
0BF4
0FF0
0FE0
0FD0
0240
0000
0000
3F80
BFC0
BF80
7F40
1900
ENDCHAR
STARTCHAR quotedbl
ENCODING 34
SWIDTH 492 0
DWIDTH 14 0
BBX 13 14 2 7
BITMAP
06402800
0BE07F40
0FF4BF80
1FF4FF40
2FE1FF00
3FD2FE00
7FC3FD00
7FC3FC00
BF87FC00
BF4BF800
BF4BF400
BF0BF000
2D03E000
04014000
ENDCHAR
STARTCHAR numbersign
ENCODING 35
SWIDTH 703 0
DWIDTH 20 0
BBX 19 20 1 0
BITMAP
0002801D00
0007D02F00
000BF03F40
000FF07F80
001FE0BF40
05AFFFFFA0
2FFFFFFFF8
2FFFFFFFFC
2FFFABFD50
04FF07F400
01FE0BF400
16FFAFFE00
FFFFFFFFC0
FFFFFFFF80
FFFABFD400
1FF07F8000
2FE0FF4000
3FD1FE0000
3FC1FE0000
1B40B80000
ENDCHAR
STARTCHAR dollar
ENCODING 36
SWIDTH 493 0
DWIDTH 14 0
BBX 15 22 1 -1
BITMAP
00004000
0000E000
0002F400
0003F400
0007FE80
006FFFE0
1BFFFFF4
BFFFAEA4
FFF40000
FFFE0000
BFFFC000
05AFE000
0002F400
0002F400
001BF400
15BFE000
3FFF8000
3FFD0000
2FF80000
07F40000
07F00000
01800000
ENDCHAR
STARTCHAR percent
ENCODING 37
SWIDTH 643 0
DWIDTH 18 0
BBX 18 20 1 0
BITMAP
0064000090
01FC0007D0
07FD001FC0
1FFE007FC0
3F7F01FF40
7E7F43FD00
BFFF4FF400
7FFE7FD000
1AA1FF4000
0003FC0000
001FF44000
007FD2E000
01FF0BF000
07FC2FF400
1FF0BFF800
3FC1FCFD00
7F42FEFD00
BF02FFFD00
FE01FFE400
7800550000
ENDCHAR
STARTCHAR ampersand
ENCODING 38
SWIDTH 599 0
DWIDTH 17 0
BBX 16 15 0 1
BITMAP
00001400
00007C00
0000FE00
0181FE00
0BF6FE00
2FFFFE00
BFFFFFE8
BFBFFFFE
BFFFFFFF
1FFFFEA4
016FF800
001FF400
001FF000
001FE000
000B8000
ENDCHAR
STARTCHAR quotesingle
ENCODING 39
SWIDTH 265 0
DWIDTH 7 0
BBX 7 14 2 7
BITMAP
0640
0BE0
0FF4
1FF4
2FE0
3FD0
7FC0
7FC0
BF80
BF40
BF40
BF00
2D00
0400
ENDCHAR
STARTCHAR parenleft
ENCODING 40
SWIDTH 361 0
DWIDTH 10 0
BBX 12 29 1 -5
BITMAP
000005
00002F
0000BF
0007FF
001FFE
003FFD
00BFE4
02FF80
07FF00
0BFD00
1FF800
2FF400
3FE000
3FD000
7FC000
7F8000
FF4000
FF4000
FF4000
FF4000
FF4000
FF4000
FF8000
BFC000
7FC000
3FC000
1FC000
07D000
02D000
ENDCHAR
STARTCHAR parenright
ENCODING 41
SWIDTH 361 0
DWIDTH 10 0
BBX 13 29 -4 -5
BITMAP
00014000
0001F000
0000F800
0000FE00
0001FF40
0000FF40
0000FF80
0000BFC0
0000BFC0
00007FC0
00007FC0
00007FC0
0000BF80
0000BF40
0000FF40
0001FF00
0002FE00
0003FE00
000BFD00
001FFC00
002FF400
00BFE000
02FFC000
1FFF4000
2FFD0000
3FF40000
3FD00000
7F400000
78000000
ENDCHAR
STARTCHAR asterisk
ENCODING 42
SWIDTH 673 0
DWIDTH 19 0
BBX 18 15 2 6
BITMAP
0004001000
007D02F400
00FF0BF000
00FFEFD000
00BFFF8000
007FFF9500
AFFFFFFF80
BFFFFFFFE0
BFFFFFEA40
2ABFFF8000
00BFFFC000
01FF2FD000
03FE0FD000
03FC07C000
0050004000
ENDCHAR
STARTCHAR plus
ENCODING 43
SWIDTH 579 0
DWIDTH 16 0
BBX 15 15 0 0
BITMAP
00019000
0007E000
000BF400
000FF400
001FF400
006FF940
7FFFFFE0
BFFFFFF8
7FFFFFE4
2EBFD400
007FC000
00BF8000
00BF4000
00BF0000
00140000
ENDCHAR
STARTCHAR comma
ENCODING 44
SWIDTH 204 0
DWIDTH 6 0
BBX 7 9 -3 -5
BITMAP
0740
0BF4
0FF4
1FF4
2FF0
3FE0
BFC0
BF40
1900
ENDCHAR
STARTCHAR hyphen
ENCODING 45
SWIDTH 609 0
DWIDTH 17 0
BBX 15 5 0 5
BITMAP
00555540
3FFFFFF0
7FFFFFFC
3FFFFFF8
1E955400
ENDCHAR
STARTCHAR period
ENCODING 46
SWIDTH 228 0
DWIDTH 6 0
BBX 5 5 -1 -1
BITMAP
2F80
BFC0
BF80
7F80
1900
ENDCHAR
STARTCHAR slash
ENCODING 47
SWIDTH 401 0
DWIDTH 11 0
BBX 15 21 -1 -1
BITMAP
00000070
000001F4
000007F4
00000FF4
00002FE0
00007FC0
0001FF40
0007FD00
000FF400
002FE000
007F8000
01FF0000
07FD0000
1FF40000
3FD00000
7F800000
BF000000
FF000000
FF000000
BD000000
14000000
ENDCHAR
STARTCHAR zero
ENCODING 48
SWIDTH 686 0
DWIDTH 19 0
BBX 18 22 0 -1
BITMAP
000003D000
00001FF400
00007FFC00
0001FFFC00
000BFFF800
001FFFFC00
007FFFFD00
01FFFEFE00
03FFD0FF40
0BFF40BF80
0FFD003FD0
2FF8002FD0
3FF0001FE0
7FE0002FF0
7FC0007FF0
BFC006FFF0
BFE5BFFFE0
7FFFFFFFC0
3FFFFFFE00
1FFFFFF800
07FFFE4000
005A900000
ENDCHAR
STARTCHAR one
ENCODING 49
SWIDTH 322 0
DWIDTH 9 0
BBX 8 21 0 0
BITMAP
0100
07D0
0BF4
0BFC
07FD
07FD
03FD
02FE
02FE
03FE
07FD
07FD
0BFC
0FF8
1FF8
2FF4
3FF0
7FE0
7FD0
3FC0
2F40
ENDCHAR
STARTCHAR two
ENCODING 50
SWIDTH 650 0
DWIDTH 18 0
BBX 19 21 1 0
BITMAP
0015500000
1BFFFE4000
3FFFFFD000
3FFFFFF400
3FFFFFFD00
2FFEAFFE00
05401FFE00
0000BFFD00
0002FFF800
001FFFE000
007FFF8000
01FFFD0000
03FFF00000
0FFF800000
2FFE000690
3FF95AFFF0
7FFFFFFFF8
7FFFFFFFF8
3FFFFFFFE0
2FFFFFE500
0BFE940000
ENDCHAR
STARTCHAR three
ENCODING 51
SWIDTH 561 0
DWIDTH 16 0
BBX 17 20 -1 0
BITMAP
0016BFF800
0BFFFFFD00
3FFFFFFF00
3FFFFFFF40
7FFFFFFF00
3FFFFFFD00
157FFFE000
00BFFF4000
00BFFE0000
00FFFFD000
007FFFF000
001BFFF800
00006FFD00
000007FE00
00006FFD00
0BFFFFFD00
0FFFFFF800
1FFFFFD000
1FFFFE0000
0AAA500000
ENDCHAR
STARTCHAR four
ENCODING 52
SWIDTH 582 0
DWIDTH 16 0
BBX 15 22 1 -1
BITMAP
00002800
00003E00
10003F00
38007F40
BD007F40
BF007F40
7F40BF40
7F80BFA0
3FD5FFF8
3FFFFFFC
2FFFFFFC
1FFFFFE0
0BFFFD00
005FF400
000FF000
000FE000
001FD000
001FD000
001FE000
000FF400
000BF400
0002A000
ENDCHAR
STARTCHAR five
ENCODING 53
SWIDTH 580 0
DWIDTH 16 0
BBX 18 20 1 0
BITMAP
001A000000
01BFD15500
07FFFFFF80
1FFFFFFFC0
7FFFFFFFD0
7FFFFFFF90
BFFFFA5400
BFFE000000
7FFF400000
2FFFE00000
0BFFF80000
01BFFD0000
0007FF0000
0000BF4000
1001FF8000
7FFFFFC000
BFFFFF8000
3FFFFF0000
1FFFF80000
05AA900000
ENDCHAR
STARTCHAR six
ENCODING 54
SWIDTH 500 0
DWIDTH 14 0
BBX 14 22 -1 -1
BITMAP
00001400
0002FC00
000BFD00
001FFE00
003FFF00
007FF800
00FFC000
01FF4000
02FE0000
07FC0000
0BF81500
0FF5BF80
1FE7FFD0
2FDFFFF0
3FDFFFF0
7F9FFFF0
7FFFFFE0
7FFFFFD0
3FFFFF40
2FFFF800
0FFE4000
01500000
ENDCHAR
STARTCHAR seven
ENCODING 55
SWIDTH 576 0
DWIDTH 16 0
BBX 18 20 0 0
BITMAP
2FFFA40000
7FFFFF0000
BFFFFF8000
BFFFFFD000
7FBFFFE000
00006FF000
00000FF000
00001FE000
00002FF540
005AFFFFD0
07FFFFFFD0
0FFFFFFFD0
0FFFFFFA00
0BFFFD0000
015FF80000
002FF00000
003FD00000
007FC00000
007F400000
003F000000
ENDCHAR
STARTCHAR eight
ENCODING 56
SWIDTH 537 0
DWIDTH 15 0
BBX 16 22 1 -1
BITMAP
00150000
01FFE0E0
07FFF1F8
1FFFFAFC
3FFFFCFC
3FD7F9FD
7F81FFFD
7FC07FF8
3FFBFFF0
1FFFFF80
0BFFFE00
0BFFE000
0FFFD000
2FFFE000
2FCFF000
2F87F400
2FD7F800
2FFFF800
0FFFF400
0BFFF000
02FF8000
00140000
ENDCHAR
STARTCHAR nine
ENCODING 57
SWIDTH 529 0
DWIDTH 15 0
BBX 14 22 1 -1
BITMAP
00015000
001FF800
01FFFD00
07FFFF00
1FFFFF80
3FFD7FC0
7FE1BFD0
BFFFFFE0
FFFFFFF0
BFFFFFD0
7FFFFF40
1BE5BF00
0000FE00
0000FE00
0001FD00
0002FC00
0002FC00
0003F800
0003F800
0003F400
0003F000
00014000
ENDCHAR
STARTCHAR colon
ENCODING 58
SWIDTH 241 0
DWIDTH 7 0
BBX 7 13 -1 -1
BITMAP
0BD0
0FF4
0FF4
0BF4
0790
0000
0000
0000
2F80
BFC0
BF80
7F80
1900
ENDCHAR
STARTCHAR semicolon
ENCODING 59
SWIDTH 245 0
DWIDTH 7 0
BBX 8 17 -2 -5
BITMAP
02F8
03FE
03FE
02FE
00F4
0000
0000
0000
0740
0FF0
1FF4
1FF0
2FF0
7FD0
FF80
FF40
1900
ENDCHAR
STARTCHAR less
ENCODING 60
SWIDTH 625 0
DWIDTH 18 0
BBX 17 14 0 0
BITMAP
0000000500
0000007F80
00000BFFC0
0001BFFF80
006FFFF900
6BFFFF9000
FFFFE40000
BFFE000000
7FFFE40000
0BFFFF4000
007FFFD000
0006FFF400
000016F800
0000001000
ENDCHAR
STARTCHAR equal
ENCODING 61
SWIDTH 586 0
DWIDTH 16 0
BBX 16 11 0 2
BITMAP
00155950
1FFFFFF8
2FFFFFFE
2FFFFFE8
1A540000
00000000
15ABFF80
BFFFFFE0
BFFFFFD0
BFA99500
10000000
ENDCHAR
STARTCHAR greater
ENCODING 62
SWIDTH 634 0
DWIDTH 18 0
BBX 17 14 -1 0
BITMAP
0140000000
0BF9000000
07FFE40000
01FFFF8000
006FFFF800
0006FFFF40
00002FFFC0
0006FFFFC0
01BFFFFA40
1FFFFE4000
BFFF900000
FFF8000000
BF80000000
0400000000
ENDCHAR
STARTCHAR question
ENCODING 63
SWIDTH 556 0
DWIDTH 16 0
BBX 17 22 1 -1
BITMAP
005A500000
07FFFF9000
0FFFFFFE00
2FFFFFFF40
1FFFFFFF40
0B95AFFF40
00000BFF00
00007FFE00
0002FFF800
001FFFE000
007FFE4000
01FFF40000
03FF800000
07F8000000
02E0000000
0000000000
0400000000
7F40000000
7FC0000000
BFC0000000
3F80000000
1900000000
ENDCHAR
STARTCHAR at
ENCODING 64
SWIDTH 732 0
DWIDTH 21 0
BBX 21 22 -1 -1
BITMAP
000001A80000
000007FF4000
000007FFD000
00000FFFF000
00007FFBF400
0002FF81FC00
000FFD00BE00
007FE00A3F40
01FF82FF2F80
07FE1FFF1FC0
0FF8BFFE0FC0
2FF2FEBD1F80
3FD7F8BD1F80
7F8BF9BE7F40
3F07FFFFFD00
3E02FFFFF400
2E406AA54000
2FF400000000
0BFFAAAAC000
01FFFFFFE000
001FFFFFF000
00005AAA4000
ENDCHAR
STARTCHAR A
ENCODING 65
SWIDTH 702 0
DWIDTH 20 0
BBX 21 21 -1 -1
BITMAP
000002E40000
000007FD0000
00001FFE0000
0002FFFE0000
000BFFFF0000
001FFFFF0000
002FFFFF4000
007FFDFF8000
00BFF4FF8000
00FFE0BFC000
02FFC0BFFD00
03FFABFFFF80
0BFFFFFFFF00
0FFFFFFFF800
1FF9FFFFF400
3FF4A95FF400
7FE0001FF800
7FD000FFF400
3FC0003FE000
1F40002F8000
000000040000
ENDCHAR
STARTCHAR B
ENCODING 66
SWIDTH 686 0
DWIDTH 19 0
BBX 20 22 -1 -1
BITMAP
0000155400
006BFFFE00
0BFFFFFFD0
7FFFFFFFF0
BFFFFABFF4
7FFE40BFF4
2FEF42FFF0
066FEFFFD0
002FFFFF80
003FFFFE00
007FFFFE00
00BFFFFF80
00FFF95BF0
01FF8002F8
02FF400BFC
03FF00BFFD
07FE1BFFFC
07FFFFFFF4
0BFFFFFF90
07FFFFFD00
02FFFE9000
0051A40000
ENDCHAR
STARTCHAR C
ENCODING 67
SWIDTH 611 0
DWIDTH 17 0
BBX 17 20 0 0
BITMAP
000001F800
00001FFE00
0001FFFF40
001BFFFF40
00BFFFFF00
02FFFFF800
0BFFFE0000
2FFFE00000
7FFE400000
BFF8000000
FFE0000000
FF80000000
FF40000000
BF40000000
7FD4000000
3FFFFAA400
1FFFFFFD00
0BFFFFFE00
01FFFFFD00
0016BFE400
ENDCHAR
STARTCHAR D
ENCODING 68
SWIDTH 588 0
DWIDTH 16 0
BBX 16 22 0 -1
BITMAP
04000000
0F800000
1FF90000
0FFFD000
0FFFF800
1FFFFF40
1FC6FFD0
0FD02FF4
0FE007FC
0FE001FE
0FE0007F
0FE000FF
1FE007FF
2FD06FFE
3FD6FFFC
3FFFFFE0
7FFFFF80
BFFFF900
7FFF9000
3FF90000
2F800000
04000000
ENDCHAR
STARTCHAR E
ENCODING 69
SWIDTH 626 0
DWIDTH 18 0
BBX 18 21 0 -1
BITMAP
000016BFC0
001AFFFFF0
06FFFFFFF0
0FFFFFFFD0
0FFFFFE900
0BFFF90000
07FE000000
03FFAA8000
03FFFFE000
0BFFFFFC00
0FFFFFF800
1FFFFF9000
3FF5540000
BFE0000000
BFD0006800
BFEABFFE00
7FFFFFFF40
7FFFFFFF40
2FFFFFFD00
0BFFFE5000
0010000000
ENDCHAR
STARTCHAR F
ENCODING 70
SWIDTH 575 0
DWIDTH 16 0
BBX 21 21 -1 0
BITMAP
000000059400
000006FFFD00
0006FFFFFF40
01BFFFFFFFC0
07FFFFFFAA40
07FFFE500000
03FFF0000000
01FFE0000000
003FD0000000
007FC0000000
09BFD6A90000
7FFFFFFF0000
7FFFFFFF0000
7FFFFFFD0000
2FFFFA540000
0FFD40000000
0FF400000000
1FF000000000
1FE000000000
0FE000000000
07D000000000
ENDCHAR
STARTCHAR G
ENCODING 71
SWIDTH 789 0
DWIDTH 22 0
BBX 24 21 0 0
BITMAP
000000140000
0000007D0000
000006FFC000
00002FFFD000
0001FFFFD000
0007FFFF8000
002FFFF80000
00BFFF800000
02FFFD000000
0BFFE007D000
1FFF801FF900
3FFD001FFF80
7FF8000FFFE0
FFE00007FFFC
FFC0001BFFFD
BF401AFFFFF8
BFFFFFFFFFE0
7FFFFFFFFF40
2FFFFFFFE400
0FFFFFE40000
02FFA5000000
ENDCHAR
STARTCHAR H
ENCODING 72
SWIDTH 695 0
DWIDTH 19 0
BBX 19 22 0 -1
BITMAP
0000000140
0080000780
02E0000BD0
03F4000BE0
07FC000BF4
07FD000FF8
07FD000FF8
0BFD001FFC
0BFD001FFC
0FFC002FF8
0FF8007FF8
1FF86BFFF4
2FFFFFFFF0
3FFFFFFFF0
3FFFFFFFD0
7FFFFAFFC0
BFFF41FF80
FFF802FF80
FFF001FF80
BFD000BF40
7F80003900
0400000000
ENDCHAR
STARTCHAR I
ENCODING 73
SWIDTH 515 0
DWIDTH 14 0
BBX 19 22 -1 -1
BITMAP
0000155500
006BFFFFE0
00FFFFFFF8
00BFFFFFFC
007FFFFFA4
00297FC000
00007FC000
0000BF8000
0000FF4000
0001FF0000
0002FE0000
0003FD0000
0007FC0000
000BF80000
001FF40000
002FF00000
017FFA0000
BFFFFFC000
FFFFFFD000
BFFFFF8000
7FA5500000
1400000000
ENDCHAR
STARTCHAR J
ENCODING 74
SWIDTH 668 0
DWIDTH 19 0
BBX 24 20 -1 0
BITMAP
00056AAFAE90
01BFFFFFFFF4
07FFFFFFFFFC
03FFFFFFFFFD
03FFFAFFEAA4
00B900BFC000
000000FF8000
000000FF4000
000001FF0000
000002FF0000
000003FE0000
000007FD0000
00000BFC0000
00001FF80000
14002FF40000
7FAAFFF00000
7FFFFFE00000
7FFFFF800000
2FFFFE000000
056BA4000000
ENDCHAR
STARTCHAR K
ENCODING 75
SWIDTH 776 0
DWIDTH 22 0
BBX 23 21 0 -1
BITMAP
001F80000000
002FF0006D00
007FF402FF40
00FFF01FFFC0
01FFE0BFFF80
01FFC2FFFE00
02FF9FFFF400
07FFBFFF8000
0BFFFFFD0000
0FFFFFF40000
1FFFFF800000
2FFFFF400000
3FFFFFD00000
3FFFFFF95540
7FFF5FFFFFD0
BFFD07FFFFF4
BFF801FFFFF0
7FF0001BFFD0
3FD000016A40
1F4000000000
010000000000
ENDCHAR
STARTCHAR L
ENCODING 76
SWIDTH 632 0
DWIDTH 18 0
BBX 17 22 0 -1
BITMAP
0010000000
007E400000
00BFD00000
00BFE00000
00FFD00000
01FFC00000
03FF400000
07FF000000
0BFE000000
0FFD000000
1FFC000000
2FF8000000
3FF4000000
7FF0000000
7FE0000000
BFD16A9000
BFFFFFFE00
BFFFFFFF80
7FFFFFFFC0
2FFFFFFF80
0FFE540400
0150000000
ENDCHAR
STARTCHAR M
ENCODING 77
SWIDTH 973 0
DWIDTH 27 0
BBX 27 22 0 -1
BITMAP
00005000000000
0002F000000A40
000BFE00001FD0
001FFF40007FF0
002FFF8001FFF8
007FFFC007FFFC
00FFFFC01FFFF8
01FFFFC0BFFFF4
02FFFFEBFFFFF4
07FFFFFFFFFFF4
0BFFFFFFFFFFF0
0FFEFFFFFE3FF0
2FFCBFFFE47FE0
3FF82FFE407FE0
7FF406A400BFE0
BFF0000000BFD0
BFD0000000FFC0
BFC0000000FF80
BF40000000BF40
7F400000007E00
3E000000002400
04000000000000
ENDCHAR
STARTCHAR N
ENCODING 78
SWIDTH 684 0
DWIDTH 19 0
BBX 21 21 -1 0
BITMAP
000000001000
0002D000B400
0003F800BE00
000BFE01FF80
000FFF02FF80
002FFF02FF40
003FFE03FF00
007FFD03FE00
00FFFC07FD00
01FFFC0BFD00
03FFFC0FFC00
07FFFC1FFC00
0FFFFC3FFC00
1FFFFDBFF800
3FFFFFFFF400
7FFDFFFFF000
3FF87FFFD000
3FF02FFF8000
2FF00FFF0000
0FD002F80000
078000500000
ENDCHAR
STARTCHAR O
ENCODING 79
SWIDTH 744 0
DWIDTH 21 0
BBX 20 22 0 -1
BITMAP
000000A400
000006FC00
00001FFF40
00007FFF80
0002FFFF40
000BFFFF40
002FFFFF80
00BFFFBFD0
02FFF42FE0
07FF800FF4
0FFE0007F8
2FF80003FC
3FF40002FD
7FD00002FE
BFC0001BFE
BF8001BFFE
BFEABFFFFD
7FFFFFFFF4
2FFFFFFFD0
0FFFFFF900
02FFFA4000
0001400000
ENDCHAR
STARTCHAR P
ENCODING 80
SWIDTH 639 0
DWIDTH 18 0
BBX 18 22 1 -1
BITMAP
0000554000
0007FFF800
002FFFFF00
00BFFFFF80
01FFFFFFC0
02FFFFFFD0
03FE407FE0
0BFC007FE0
2FF85BFFE0
7FFFFFFFD0
BFFFFFFF80
BFFFFFFE00
BFFFFFE400
7FFFF90000
3FE9000000
7FD0000000
7FD0000000
BFD0000000
BFC0000000
BFC0000000
3F40000000
1400000000
ENDCHAR
STARTCHAR Q
ENCODING 81
SWIDTH 744 0
DWIDTH 21 0
BBX 20 23 0 -2
BITMAP
0000015000
00000FF800
00000FFF40
00002FFFC0
00007FFFD0
0002FFFFF0
000BFFFFF8
003FFF47FC
01FFF802FE
07FFE000FF
1FFF4400FF
3FFD1FD1FF
BFF41FF6FF
FFD00BFFFF
FF8003FFFE
FF401BFFF8
FF5AFFFFF0
BFFFFFFFE0
BFFFFFFFF0
2FFFFF9FF4
07FFE40BF8
00540007F4
0000000190
ENDCHAR
STARTCHAR R
ENCODING 82
SWIDTH 646 0
DWIDTH 18 0
BBX 18 22 0 -1
BITMAP
0000040000
00007F4000
0001FFD000
0007FFF400
000FFFFC00
002FFFFE00
07FFEBFF00
0BFF82FF40
0BFE01FF40
0FFD1FFF40
1FFFFFFF00
1FFFFFFD00
2FFFFFE000
3FFFFD0000
3FFFD00000
7FFFE00000
7FFFFE4000
BFEFFFFE90
7FCBFFFFF0
3F81BFFFF0
2E001BFFF0
0000006BD0
ENDCHAR
STARTCHAR S
ENCODING 83
SWIDTH 576 0
DWIDTH 16 0
BBX 20 22 0 -1
BITMAP
0000005500
00006FFFE0
001BFFFFF4
01FFFFFFF8
1FFFFFFFFD
7FFFFA6AA4
BFFF400000
BFFFE00000
BFFFFD0000
3FFFFF0000
06BFFF8000
00007FD000
00000BE000
00000FF000
00002FF000
0002FFE000
056FFFC000
1FFFFF4000
1FFFFC0000
1FFFD00000
0FFD000000
0140000000
ENDCHAR
STARTCHAR T
ENCODING 84
SWIDTH 607 0
DWIDTH 17 0
BBX 22 22 0 -1
BITMAP
000000015500
00057AFFFF80
BFFFFFFFFFD0
FFFFFFFFFFE0
BFFFFFFFFF90
7FFFFFE54000
1AAAFF400000
0003FF000000
0007FE000000
000FFC000000
001FF8000000
002FF4000000
003FE0000000
007FD0000000
00BFC0000000
00FF40000000
00FF00000000
00FF00000000
00BF00000000
007FC0000000
002FC0000000
000640000000
ENDCHAR
STARTCHAR U
ENCODING 85
SWIDTH 695 0
DWIDTH 19 0
BBX 19 20 1 0
BITMAP
00000001D0
00000002F0
0A000003F4
2F400007F8
2FC00007FC
3FD0000BFC
3FE0000FFC
7FE0001FF8
7FD0003FF8
BFD000BFF0
BFD001FFE0
BFD007FFC0
BFD06FFF40
BFE6FFFD00
7FFFFFF400
2FFFFFE000
2FFFFF8000
1FFFFE0000
0BFFE40000
01AA400000
ENDCHAR
STARTCHAR V
ENCODING 86
SWIDTH 583 0
DWIDTH 16 0
BBX 17 22 2 -1
BITMAP
0000001000
B400007E00
F80001FF00
FE0003FF40
FF400BFF00
FF402FFE00
FF807FFC00
FF80FFF000
FFC2FFD000
FFC7FF4000
FFCFFE0000
BFEFFC0000
7FFFF40000
7FFFE00000
7FFFD00000
3FFF400000
2FFF000000
2FFD000000
0FF8000000
0FF8000000
03E0000000
0040000000
ENDCHAR
STARTCHAR W
ENCODING 87
SWIDTH 994 0
DWIDTH 28 0
BBX 29 21 0 0
BITMAP
0000000000000400
0028000000002D00
00BE000000003F40
00FF8003D000BF80
02FF800BF400FFC0
03FF401FF801FFC0
07FF003FF802FF80
0BFE00BFF803FF40
0FFD00FFF40BFE00
1FFC02FFF40FFD00
1FF807FFF01FFC00
2FF40FFFE03FF800
3FF02FFFE0BFF000
3FF0BFFFE1FFE000
7FE2FFFFFBFFD000
7FEFFFEFFFFF8000
3FFFFF87FFFF0000
2FFFFE02FFFD0000
0FFFF401FFF80000
07FF9000BFE00000
00A900002F800000
ENDCHAR
STARTCHAR X
ENCODING 88
SWIDTH 623 0
DWIDTH 17 0
BBX 20 21 -1 -1
BITMAP
01E0000014
02FD0001FD
02FF400BFE
02FFD07FFF
01FFF1FFFE
00FFFFFFF4
003FFFFF80
001FFFFD00
000BFFF400
001FFFC000
007FFFC000
00FFFFE000
03FFFFF400
0FFFAFFC00
2FFE0BFE00
3FF807FF40
7FE002FF80
7FC000FF80
7F4000BF40
2F40002E00
0900000000
ENDCHAR
STARTCHAR Y
ENCODING 89
SWIDTH 493 0
DWIDTH 14 0
BBX 16 22 1 -1
BITMAP
10000060
7E0002F8
7F800BFE
7FC02FFE
3FD0BFFD
3FE1FFF0
3FE3FFD0
2FFBFF40
1FFFFD00
0FFFF800
0BFFF400
07FFE000
02FFC000
07FF4000
0BFE0000
1FFD0000
2FF80000
7FF40000
BFD00000
BFC00000
7F800000
1A000000
ENDCHAR
STARTCHAR Z
ENCODING 90
SWIDTH 664 0
DWIDTH 19 0
BBX 21 21 -1 -1
BITMAP
002FFFFFF800
003FFFFFFE00
002FFFFFFF40
001FFFFFFF40
000BAABFFF00
000001FFFD00
000007FFE000
00002FFF8000
0001FFFE0000
000BFFF80000
003FFFD00000
02FFFE000000
0BFFF4000000
2FFF80000000
3FFE005BD000
7FF81BFFE400
7FFFFFFFF400
3FFFFFFFD000
2FFFFFFE0000
0FFFFA900000
01FE90000000
ENDCHAR
STARTCHAR bracketleft
ENCODING 91
SWIDTH 387 0
DWIDTH 11 0
BBX 21 31 -1 -5
BITMAP
000000054000
0002AFFFFD00
000BFFFFFF40
0007FFFFFF80
0007FFFFE900
000BF8000000
000FF4000000
000FF0000000
001FE0000000
002FE0000000
003FD0000000
003FC0000000
007F80000000
00BF80000000
00FF40000000
01FF00000000
01FE00000000
02FE00000000
03FD00000000
07FC00000000
0BF800000000
0FF400000000
1FF000000000
2FF000000000
2FE000000000
3FD154000000
7FFFFF400000
BFFFFFC00000
BFFFFF800000
7FFAA5000000
150000000000
ENDCHAR
STARTCHAR backslash
ENCODING 92
SWIDTH 352 0
DWIDTH 10 0
BBX 7 22 1 -1
BITMAP
2400
7D00
7F40
3F80
3F80
2F80
2FC0
1FC0
0FD0
0FD0
0FE0
0BE0
0BF0
07F0
03F4
03F4
03F8
02F8
03F8
02FC
01FC
0064
ENDCHAR
STARTCHAR bracketright
ENCODING 93
SWIDTH 403 0
DWIDTH 11 0
BBX 20 31 -8 -5
BITMAP
0000015540
0002BFFFF4
0007FFFFFD
0003FFFFFE
0002FFAFFD
00009003FC
00000007FC
00000007F8
0000000BF4
0000000FF0
0000001FF0
0000002FE0
0000002FD0
0000003FC0
0000007FC0
000000BF80
000000BF40
000000FF00
000001FF00
000002FE00
000003FD00
000007FC00
00000BF800
00000FF400
00001FF000
00016FF000
5AFFFFE000
BFFFFFD000
BFFFFF8000
7FFAA50000
1500000000
ENDCHAR
STARTCHAR asciicircum
ENCODING 94
SWIDTH 518 0
DWIDTH 15 0
BBX 13 16 0 5
BITMAP
00006400
0001FC00
0002FD00
0007FE00
000BFF00
001FFF00
003FFF40
00BFFF40
01FF7F80
07FD3F80
0FF83F80
2FF03F80
7FD02F80
FF801F80
BE000B80
78000340
ENDCHAR
STARTCHAR underscore
ENCODING 95
SWIDTH 708 0
DWIDTH 20 0
BBX 23 5 -3 -1
BITMAP
001555554000
7FFFFFFFFF80
BFFFFFFFFFF4
7FFFFFFFFFF4
1BA955555500
ENDCHAR
STARTCHAR grave
ENCODING 96
SWIDTH 754 0
DWIDTH 21 0
BBX 9 9 8 12
BITMAP
180000
7F4000
BFD000
BFF400
2FFD00
07FF00
01FF40
007F00
000500
ENDCHAR
STARTCHAR a
ENCODING 97
SWIDTH 581 0
DWIDTH 16 0
BBX 17 18 -1 -1
BITMAP
0000140000
00003F8000
0000BFC000
001BFFD000
002FFFD000
007FFFE000
00FFEFE000
01FF8FF000
02FF0BF500
07FD1BFF80
0BFFFFFFC0
1FFFFFFE40
2FEBFFFD00
3FC295FD00
7F8006FD00
7F400BFC00
2E0003F400
0400004000
ENDCHAR
STARTCHAR b
ENCODING 98
SWIDTH 573 0
DWIDTH 16 0
BBX 16 18 -1 -1
BITMAP
001ABE80
0BFFFFF0
7FFFFFFC
BFFF9BFD
7FF80BFD
1F7D7FF8
00BFFFF0
00FFFFD0
00FFFFD0
01FFFFF4
02FE40BD
03FC00BF
07F807FF
0BF5BFFF
0FFFFFFD
0FFFFFE0
07FFF900
014A4000
ENDCHAR
STARTCHAR c
ENCODING 99
SWIDTH 513 0
DWIDTH 14 0
BBX 14 17 0 0
BITMAP
00000900
00007F80
0007FFE0
006FFFE0
02FFFFC0
0BFFF900
2FFF4000
7FF90000
FFD00000
FF400000
FE000000
BE000000
BF500000
3FFFFA00
1FFFFFC0
07FFFFC0
006FFF40
ENDCHAR
STARTCHAR d
ENCODING 100
SWIDTH 497 0
DWIDTH 14 0
BBX 14 18 0 -1
BITMAP
09000000
1FD00000
1FFE0000
1FFFD000
2FBFF800
1F46FE00
1F807F40
1F801FC0
1F800BD0
1F801FD0
2F80BFD0
3F87FF80
7FFFFE00
BFFFF400
BFFF8000
7FF90000
3F400000
04000000
ENDCHAR
STARTCHAR e
ENCODING 101
SWIDTH 521 0
DWIDTH 15 0
BBX 16 18 0 -1
BITMAP
000005A0
001AFFF8
06FFFFFD
1FFFFFF4
0FFFF940
0FF94000
07F95400
0BFFFE00
0FFFFF80
1FFFFE00
3FEAA400
7FC00000
BF400640
BFABFFD0
7FFFFFE0
7FFFFFD0
1FFFF900
01540000
ENDCHAR
STARTCHAR f
ENCODING 102
SWIDTH 455 0
DWIDTH 13 0
BBX 18 18 -1 -1
BITMAP
000016FE00
0006FFFFC0
01BFFFFFD0
0BFFFFAA40
0BFFD40000
03FF400000
01FF000000
00FE000000
1AFE6A8000
7FFFFFE000
7FFFFFD000
3FFFFA4000
1FF5000000
1FD0000000
2FC0000000
1F80000000
0F80000000
0100000000
ENDCHAR
STARTCHAR g
ENCODING 103
SWIDTH 652 0
DWIDTH 18 0
BBX 20 18 0 -1
BITMAP
0000024000
00001FE000
0001FFF400
000BFFF400
002FFFD000
00FFFD0000
03FFE00000
0FFF40B400
2FFC02FE40
7FF001FFE0
BFC000FFF8
FF4000BFFD
BE016FFFFC
BFFFFFFFF4
7FFFFFFF40
2FFFFF9400
0BFFA40000
0040000000
ENDCHAR
STARTCHAR h
ENCODING 104
SWIDTH 582 0
DWIDTH 16 0
BBX 16 18 0 -1
BITMAP
00000060
034000F4
07C000F8
0BE001FD
0FF401FE
0FF001FE
0FF002FE
1FE002FE
1FE01BFD
2FE6FFFC
3FFFFFFC
7FFFFFF8
BFFFAFF4
BFF91FF0
FFD01FF0
FF801FE0
7F000B80
14000000
ENDCHAR
STARTCHAR i
ENCODING 105
SWIDTH 320 0
DWIDTH 9 0
BBX 7 18 1 -1
BITMAP
0080
03D0
07F0
0BF0
0FF4
0FF4
1FF0
2FE0
3FD0
3FC0
7FC0
7F80
7F80
7F80
3F80
2F80
1F80
0500
ENDCHAR
STARTCHAR j
ENCODING 106
SWIDTH 534 0
DWIDTH 15 0
BBX 20 17 -1 0
BITMAP
0000155550
01BFFFFFF8
0BFFFFFFFD
07FFFFFFFD
03FA9BF554
00500BF000
00000FE000
00001FE000
00001FD000
00002FC000
00003F8000
0000BF4000
1401FF0000
7FABFE0000
7FFFFD0000
3FFFF40000
1ABF900000
ENDCHAR
STARTCHAR k
ENCODING 107
SWIDTH 645 0
DWIDTH 18 0
BBX 19 18 0 -1
BITMAP
0028000000
007F400600
00FF807F80
02FF42FFE0
02FF0BFFD0
03FD7FFE40
0BFEFFF400
0FFFFF8000
1FFFFE0000
2FFFF80000
3FFFF80000
3FFFFE4000
7FFDFFFFE0
BFF42FFFF8
7FD00BFFF4
7F8000AFD0
2F00000000
0400000000
ENDCHAR
STARTCHAR l
ENCODING 108
SWIDTH 533 0
DWIDTH 15 0
BBX 15 18 0 -1
BITMAP
00A40000
00FE0000
01FF0000
02FE0000
03FD0000
07FC0000
0FF80000
1FF00000
2FF00000
3FD00000
7FC00000
7F800000
BF856900
BFFFFFD0
BFFFFFF0
3FFFFFF4
2FFE9690
05500000
ENDCHAR
STARTCHAR m
ENCODING 109
SWIDTH 814 0
DWIDTH 23 0
BBX 23 18 0 -1
BITMAP
000B00000100
001FE0000BC0
003FF4002FE0
00BFF800BFF4
01FFF802FFF4
02FFF80BFFF4
07FFFDBFFFF0
0BFFFFFFFFF0
0FFFFFFFEFF0
2FFBFFFE5FE0
3FE2FFF42FD0
7FD0AE403FD0
BFD000003FC0
BF8000007F80
BF4000007F40
BE0000003F00
7D0000001900
140000000000
ENDCHAR
STARTCHAR n
ENCODING 110
SWIDTH 564 0
DWIDTH 16 0
BBX 18 17 -1 0
BITMAP
0005000800
000F801F40
002FE02FD0
003FF03FD0
007FF07FC0
00FFE07F80
01FFD0BF40
03FFD0FF00
07FFD1FF00
0FFFD2FF00
1FFFD7FE00
2FFFEFFD00
7FF7FFFC00
7FE2FFF800
3FC0FFE000
1FC07FC000
0B400A0000
ENDCHAR
STARTCHAR o
ENCODING 111
SWIDTH 628 0
DWIDTH 18 0
BBX 17 18 0 -1
BITMAP
00001F4000
0000BFD000
0002FFF000
000FFFE000
003FFFE000
01FFFFF400
03FF97F800
0BFE01FD00
1FF800BE00
3FE0007F00
7FC0003F40
BF4000BF80
BF000BFF40
BFEAFFFF00
7FFFFFFD00
2FFFFFE000
0BFFF90000
0055000000
ENDCHAR
STARTCHAR p
ENCODING 112
SWIDTH 524 0
DWIDTH 15 0
BBX 15 18 1 -1
BITMAP
001BF900
00BFFFC0
02FFFFE0
03FFFFF0
0BFEAFF4
0FF007F4
3FD1BFF4
BFFFFFF4
FFFFFFE0
FFFFFF80
FFFFE400
BFE50000
BF400000
FF400000
FF000000
FF000000
BD000000
14000000
ENDCHAR
STARTCHAR q
ENCODING 113
SWIDTH 625 0
DWIDTH 18 0
BBX 17 19 0 -2
BITMAP
00007A0000
0000BFD000
0000FFF000
0002FFF400
001FFFFC00
00BFFAFE00
02FFD07F40
0BFF402F80
2FF8502F80
7FE0FD3F80
FF80BFBF80
FF003FFF40
FE01BFFE00
FE6FFFF800
BFFFFFF800
7FFFFFFC00
1FFF90FD00
015000BD00
0000002400
ENDCHAR
STARTCHAR r
ENCODING 114
SWIDTH 541 0
DWIDTH 15 0
BBX 15 18 0 -1
BITMAP
0001A000
0007FC00
001FFF00
003FFF80
05FFFFC0
0BFE2FD0
0FF81FE0
1FF5BFE0
1FFFFFD0
2FFFFF40
3FFFF800
3FFE4000
7FFF4000
BFFFE500
BFBFFFF8
7F0BFFFC
3D01BFFC
040006F8
ENDCHAR
STARTCHAR s
ENCODING 115
SWIDTH 463 0
DWIDTH 13 0
BBX 16 18 0 -1
BITMAP
00006AE4
001BFFFC
06FFFFFE
2FFFFFFF
7FFF9554
BFFD0000
BFFF9000
7FFFF000
06AFF800
0001BD00
00007E00
0000FE00
000BFD00
05BFF800
2FFFE000
2FFF8000
1FF90000
05400000
ENDCHAR
STARTCHAR t
ENCODING 116
SWIDTH 479 0
DWIDTH 13 0
BBX 18 18 0 -1
BITMAP
000156AF80
6ABFFFFFE0
FFFFFFFFF0
BFFFFFFF90
7FFFF90000
150FF00000
001FE00000
003FD00000
007FC00000
00BF400000
00FF000000
01FE000000
02FC000000
02F8000000
02F8000000
01FD000000
00BE000000
0018000000
ENDCHAR
STARTCHAR u
ENCODING 117
SWIDTH 584 0
DWIDTH 16 0
BBX 16 17 1 0
BITMAP
00000024
0000003C
1800007D
2E0000BE
3F4000BF
3F8000FF
7FC001FE
7F8003FE
BF400BFC
BF402FF8
BF40BFF0
BF9BFFD0
7FFFFF40
3FFFFD00
2FFFF400
1FFF9000
06F90000
ENDCHAR
STARTCHAR v
ENCODING 118
SWIDTH 485 0
DWIDTH 14 0
BBX 14 18 2 -1
BITMAP
50000280
F4000FD0
FC002FE0
FE00BFD0
FE01FF80
FF03FF00
FF0BFD00
FF1FF400
FF7FE000
BFFFC000
BFFF4000
7FFE0000
7FFC0000
3FF80000
2FE00000
1FE00000
0BC00000
01000000
ENDCHAR
STARTCHAR w
ENCODING 119
SWIDTH 825 0
DWIDTH 23 0
BBX 25 18 0 -1
BITMAP
00100000001400
00F40000003D00
02FD0074007F00
03FD00FD00FF40
0BFC02FF01FF40
0FF807FE02FF00
0FF40FFD03FD00
1FF01FFD07FC00
2FE03FFC0FF800
3FD0BFFC1FF000
3FC2FFFC7FE000
7FCBFFFDFFD000
7FEFFEFFFF8000
3FFFF8BFFF0000
2FFFE03FFD0000
0FFF401FF80000
02F4000BE00000
00000001000000
ENDCHAR
STARTCHAR x
ENCODING 120
SWIDTH 506 0
DWIDTH 14 0
BBX 17 18 -1 -1
BITMAP
0140000000
03E0001F00
03FC00BF80
07FE07FF80
02FFAFFF40
01FFFFF800
007FFFD000
002FFE0000
007FF80000
01FFFD0000
03FFFE0000
0FFEFF4000
2FF87FD000
3FE02FE000
7F801FF000
7F000BE000
3E0007D000
1800004000
ENDCHAR
STARTCHAR y
ENCODING 121
SWIDTH 400 0
DWIDTH 11 0
BBX 14 18 1 -1
BITMAP
64001A00
7E007FC0
7F41FFD0
7F83FF80
3F8BFE00
3FDFF800
2FFFE000
1FFFC000
0FFF4000
07FF0000
07FD0000
0FF80000
1FF00000
3FE00000
7FC00000
BF400000
BF000000
2D000000
ENDCHAR
STARTCHAR z
ENCODING 122
SWIDTH 547 0
DWIDTH 15 0
BBX 17 18 -1 -1
BITMAP
001A955500
00BFFFFF40
00BFFFFFC0
007FFFFFC0
00195BFF80
00001FFE00
0000BFF400
0007FFD000
002FFF4000
01FFF80000
0BFFD00000
2FFE000000
3FF801B400
7FE1BFFD00
7FFFFFFD00
3FFFFFE400
1FFFF90000
06FA400000
ENDCHAR
STARTCHAR braceleft
ENCODING 123
SWIDTH 448 0
DWIDTH 13 0
BBX 23 31 0 -5
BITMAP
000000015000
00006BFFFF80
0000FFFFFFE0
0000FFFFFFF4
0000FFFFFA90
0000FF400000
0001FE000000
0002FE000000
0002FD000000
0003FC000000
0007F8000000
007FF8000000
17FFF4000000
7FFF90000000
7FFD00000000
7FF800000000
2FFF40000000
0BFFC0000000
01FFC0000000
00BF80000000
00FF40000000
01FF00000000
02FE00000000
03FD00000000
07FC00000000
0BF855400000
0FFFFFE00000
1FFFFFF80000
0FFFFFF40000
0BFEA9500000
025000000000
ENDCHAR
STARTCHAR bar
ENCODING 124
SWIDTH 332 0
DWIDTH 9 0
BBX 9 22 0 -1
BITMAP
000100
000B40
000FC0
001FC0
002FC0
003F80
007F40
00BF00
00FE00
01FD00
02FC00
03F800
07F400
0BF000
0FE000
1FD000
3FC000
7F4000
BF4000
FF0000
BD0000
140000
ENDCHAR
STARTCHAR braceright
ENCODING 125
SWIDTH 481 0
DWIDTH 13 0
BBX 21 31 -8 -5
BITMAP
000005554000
0006BFFFF400
0007FFFFFC00
0007FFFFFD00
0003FFBFFC00
00019007F800
0000000BF800
0000000BF400
0000000FF000
0000001FF000
0000002FE000
0000003FD000
0000007FD000
000000BFF800
0000007FFE00
0000000BFF80
00000007FFC0
0000006FFF80
000002FFFA40
000003FFD000
000007FE0000
00000BF80000
00000FF80000
00001FF40000
00002FF00000
00017FE00000
6AFFFFD00000
FFFFFFC00000
FFFFFF400000
BFFA95000000
250000000000
ENDCHAR
STARTCHAR asciitilde
ENCODING 126
SWIDTH 581 0
DWIDTH 16 0
BBX 16 5 0 6
BITMAP
06FF40BD
1FFFD2FC
3FFFFFF4
BF4FFFE0
B902FF40
ENDCHAR
STARTCHAR uni00A0
ENCODING 160
SWIDTH 370 0
DWIDTH 10 0
BBX 1 1 0 0
BITMAP
00
ENDCHAR
STARTCHAR exclamdown
ENCODING 161
SWIDTH 260 0
DWIDTH 7 0
BBX 8 22 -1 -1
BITMAP
0028
00FE
01FF
02FF
01BD
0004
0000
0190
03F4
0BF4
0BF4
0FF0
1FF0
1FE0
2FD0
2FC0
3FC0
3FC0
3F80
7F40
2F00
0800
ENDCHAR
STARTCHAR cent
ENCODING 162
SWIDTH 488 0
DWIDTH 14 0
BBX 13 22 0 -1
BITMAP
00004000
0000F000
0001F400
0002F800
0003FE00
000BFFC0
007FFFC0
02FFFE40
0FFF9000
2FFD0000
7FE00000
BF400000
BE000000
7E000000
3FE95400
2FFFFF00
07FFFF40
02FFFD00
03FC0000
07F80000
03F40000
00900000
ENDCHAR
STARTCHAR sterling
ENCODING 163
SWIDTH 586 0
DWIDTH 16 0
BBX 18 16 -1 2
BITMAP
00006FEA40
0001FFFFC0
0007FFFFD0
000BFEAFC0
001FF00100
002FE00000
0AFFFFD000
1FFFFFF400
1FFFFFF400
0BFF554000
00FF000000
00FE00A400
2AFFAFFC00
7FFFFFFD00
2FFFFFFD00
0BFFAA5000
ENDCHAR
STARTCHAR currency
ENCODING 164
SWIDTH 509 0
DWIDTH 14 0
BBX 14 15 0 0
BITMAP
0B428180
0BEFFBE0
0FFFFFE0
07FFFFD0
07FFFE00
0FFAFD00
2FE0FE00
3FC1FF00
3FFFFF00
3FFFFD00
7FFFFC00
BFFAFD00
BC00BD00
78002800
10000000
ENDCHAR
STARTCHAR yen
ENCODING 165
SWIDTH 563 0
DWIDTH 16 0
BBX 16 18 0 0
BITMAP
00400024
02F401FD
02FC07FF
01FD0FFE
01FD2FF8
01FE7FE0
00FFFF80
00BFFF00
05BFFE40
BFFFFFE0
7FFFFFF8
7FFFFFA4
1ABFC000
00FF4000
02FF0000
03FD0000
03FC0000
01F40000
ENDCHAR
STARTCHAR brokenbar
ENCODING 166
SWIDTH 301 0
DWIDTH 8 0
BBX 10 22 -1 -1
BITMAP
000140
0003C0
0007D0
000BE0
000FE0
001FD0
003FC0
007F80
007F40
007E00
000400
000000
000000
03E000
07F400
0FF000
1FE000
2FD000
7F8000
7F4000
7F0000
040000
ENDCHAR
STARTCHAR section
ENCODING 167
SWIDTH 630 0
DWIDTH 18 0
BBX 18 25 0 -3
BITMAP
00006BFE00
006FFFFF80
03FFFFFFD0
07FFFFFFC0
0BFFE95A00
0BFF400000
07FFE40000
02FFFF4000
01FFFFE400
07FFFFFC00
1FFFFFFF00
2FFE52FF40
3FE001FF80
2FF9AFFF40
0FFFFFFE00
03FFFFF800
00BFFFE000
001BFFF800
0000BFFC00
00006FFD00
2EABFFFC00
7FFFFFFC00
7FFFFFE400
2FFFF90000
06A5000000
ENDCHAR
STARTCHAR dieresis
ENCODING 168
SWIDTH 754 0
DWIDTH 21 0
BBX 13 5 6 16
BITMAP
05005400
7F40FE00
BFC1FF40
BF81FF00
7E007800
ENDCHAR
STARTCHAR copyright
ENCODING 169
SWIDTH 614 0
DWIDTH 17 0
BBX 17 18 0 3
BITMAP
0000040000
0006BF4000
002FFFE000
00BF907D00
02F9012F00
07F02FDF40
0FD2FFCB80
2F8BF90BC0
3F2F9007C0
7E3D0007C0
7D38000BC0
7D3E400F80
7E2FFC2F40
3E0BFDBE00
1F4055F800
0BD01FE000
02FFFF8000
002FF80000
ENDCHAR
STARTCHAR ordfeminine
ENCODING 170
SWIDTH 454 0
DWIDTH 13 0
BBX 13 13 0 5
BITMAP
000B8000
001FE000
01FFF000
03FFF000
07FFF400
0FFBF900
1FFBFF40
3FFFFF40
7FFFFE00
FFABFD00
FF07FD00
7D02F400
00004000
ENDCHAR
STARTCHAR guillemotleft
ENCODING 171
SWIDTH 566 0
DWIDTH 16 0
BBX 16 13 -1 -1
BITMAP
0002800A
000BC03F
002FC1FF
01FF47FD
1BFD6FF4
7FF5FFD0
7F81FE00
3FD0FE00
1FF47FD0
07FD2FF0
01FE07F4
002F00B8
00050014
ENDCHAR
STARTCHAR logicalnot
ENCODING 172
SWIDTH 698 0
DWIDTH 20 0
BBX 18 10 0 0
BITMAP
0055555400
BFFFFFFF40
BFFFFFFFD0
BFFFFFFFD0
2E95556FD0
0000003F80
000000BF40
000000FF00
000000FE00
000000BC00
ENDCHAR
STARTCHAR sfthyphen
ENCODING 173
SWIDTH 608 0
DWIDTH 17 0
BBX 15 5 0 5
BITMAP
00555540
3FFFFFF0
7FFFFFFC
3FFFFFF8
1E955400
ENDCHAR
STARTCHAR registered
ENCODING 174
SWIDTH 624 0
DWIDTH 17 0
BBX 17 18 1 3
BITMAP
0000100000
001AFE0000
007FFFD000
02FF40F400
0BF4287D00
1FD0FE3E00
2F46FF2F00
7E1F8F5F40
BD2F6F4F40
FC3FFE1F40
F87FE41F40
F8BF802F00
FCBFFABE00
BCB1FFFC00
3E101FF400
1F506FD000
07FFFE0000
006FE40000
ENDCHAR
STARTCHAR macron
ENCODING 175
SWIDTH 754 0
DWIDTH 21 0
BBX 10 5 7 16
BITMAP
15AA80
BFFFE0
BFFFF0
BFFFD0
540000
ENDCHAR
STARTCHAR degree
ENCODING 176
SWIDTH 284 0
DWIDTH 8 0
BBX 9 9 2 14
BITMAP
002400
01FC00
07FC00
1FFE00
3FBF40
7E7F40
BFFF80
7FFE00
2FE400
ENDCHAR
STARTCHAR plusminus
ENCODING 177
SWIDTH 559 0
DWIDTH 16 0
BBX 17 21 -1 -1
BITMAP
0000040000
00002D0000
0000BF0000
0000FF0000
0000FF0000
0001FF0000
016BFFE900
0BFFFFFF40
0BFFFFFF80
07FFFEA900
015BFC0000
000BF80000
000FF40000
000FF00000
0007D00000
0000000000
16AAFA8000
BFFFFFF400
BFFFFFF800
7FFFFA9000
1900000000
ENDCHAR
STARTCHAR twosuperior
ENCODING 178
SWIDTH 386 0
DWIDTH 11 0
BBX 10 11 2 9
BITMAP
6FE400
FFFE00
BFFF40
6AFF80
0BFE00
2FF800
BFEAD0
FFFFF0
FFFFF0
7FFA40
040000
ENDCHAR
STARTCHAR threesuperior
ENCODING 179
SWIDTH 366 0
DWIDTH 10 0
BBX 9 11 2 9
BITMAP
1AFD00
BFFF40
FFFF80
BFFF40
0FFD00
0BFF40
01BFC0
1FFFC0
1FFF80
1FF900
010000
ENDCHAR
STARTCHAR acute
ENCODING 180
SWIDTH 754 0
DWIDTH 21 0
BBX 9 9 8 12
BITMAP
001800
00BE00
02FF40
0BFF40
2FFD00
7FF000
BF8000
BE0000
240000
ENDCHAR
STARTCHAR mu
ENCODING 181
SWIDTH 569 0
DWIDTH 16 0
BBX 17 18 -1 -3
BITMAP
0000000D00
0040001F00
02D0002F40
02F0002F80
03F4003F80
03F8007F40
07F400FF00
0BF402FE00
0FF00BFD00
0FF46FF800
1FFBFFE000
1FFFFF8000
2FFFFE0000
3FFFF80000
3FFF800000
7F40000000
7F00000000
2D00000000
ENDCHAR
STARTCHAR paragraph
ENCODING 182
SWIDTH 729 0
DWIDTH 20 0
BBX 21 22 1 -1
BITMAP
0000015AF800
0006BFFFFF00
00BFFFFFFFC0
0BFFFFFFFFC0
2FFFFFEBF900
7FFFBFC7F400
7FF97F8BF000
7FD07F4FE000
3FE0BF5FE000
1FF9FF1FD000
0BFFFF2FD000
01FFFFFFC000
002FFFFFD000
0003FFFFF000
0007F9FF9000
0007F8FF0000
0007F4FE0000
0007F5FF0000
000BF0FF4000
000FE0BF8000
000FD07F8000
000140190000
ENDCHAR
STARTCHAR periodcentered
ENCODING 183
SWIDTH 226 0
DWIDTH 6 0
BBX 5 5 1 8
BITMAP
1900
7F40
BFC0
BF80
7900
ENDCHAR
STARTCHAR cedilla
ENCODING 184
SWIDTH 754 0
DWIDTH 21 0
BBX 10 11 7 -9
BITMAP
005000
02F800
07F000
0BF400
0BFF40
02FFD0
000BE0
156FF0
BFFFE0
3FFF80
059400
ENDCHAR
STARTCHAR onesuperior
ENCODING 185
SWIDTH 206 0
DWIDTH 6 0
BBX 6 11 1 9
BITMAP
0E00
1F80
1FC0
0FD0
0FD0
1FC0
2FC0
3F80
7F00
3E00
0400
ENDCHAR
STARTCHAR ordmasculine
ENCODING 186
SWIDTH 445 0
DWIDTH 12 0
BBX 12 14 0 5
BITMAP
000100
000BD0
002FF4
00FFF4
03FFF4
0FFFFC
2FFAFD
3FE1FE
BF81FF
BFFFFF
BFFFFE
7FFFF8
1FFF90
015400
ENDCHAR
STARTCHAR guillemotright
ENCODING 187
SWIDTH 595 0
DWIDTH 17 0
BBX 16 13 -1 -1
BITMAP
1D003400
1F903F40
0BF42FD0
07FD1FF8
01FF47FD
003F80FF
00BFC2FF
07FF8FFE
1FF87FE0
7FD0FF80
BF01FD00
7C01F400
20005000
ENDCHAR
STARTCHAR onequarter
ENCODING 188
SWIDTH 705 0
DWIDTH 20 0
BBX 18 22 1 -1
BITMAP
0000001000
1D0000B400
2F8002F400
2FC00BF400
1FC01FF400
1FC03FE000
2FC0BF8000
3F82FE0000
7F47FC0000
7F1FF00000
7E3FD01E00
04BFA82F00
02FE7D3F40
0BFC7F3F80
1FF03FFFD0
7FD03FFFE0
BF402FFF80
FF0006FC00
FE0002F400
FE0002F800
BD0001FC00
1400005400
ENDCHAR
STARTCHAR onehalf
ENCODING 189
SWIDTH 750 0
DWIDTH 21 0
BBX 19 22 1 -1
BITMAP
0000001000
1D0000B400
2F8002F400
2FC00BF400
1FC01FF400
1FC03FE000
2FC0BF8000
3F82FE0000
7F47FC0000
7F1FF00000
7E3FD00000
04BF9FF900
02FE2FFF40
0BFC2FFFC0
1FF005FFC0
7FD002FF40
BF400BF900
FF002FFAF0
FE003FFFF4
FE003FFFF4
BD001FE940
1400000000
ENDCHAR
STARTCHAR threequarters
ENCODING 190
SWIDTH 818 0
DWIDTH 23 0
BBX 20 22 2 -1
BITMAP
0154000000
7FFF0001E0
BFFF8007F0
FFFF801FF0
6FFE007FE0
1FFC00FF80
0BFE02FE00
6AFF0BF800
BFFE2FE000
FFFDBF8000
6A92FE00F0
000BF981F4
002FE3E2F4
00BF87F3F8
02FE07FFFD
0BF807FFFD
1FE002FFE4
3FC0007F40
7F80007F00
7F40007F40
7E00003F00
1400001500
ENDCHAR
STARTCHAR questiondown
ENCODING 191
SWIDTH 556 0
DWIDTH 16 0
BBX 16 22 -2 -1
BITMAP
00000014
000000BD
000001FF
000001FF
000001FF
00000019
00000000
00000250
00000FF0
00007FE0
0007FFD0
002FFF40
02FFFD00
0FFFE000
2FFF4000
7FF80000
BFF94060
BFFFFFFC
BFFFFFFD
7FFFFFF8
1BFFFFF0
001ABE80
ENDCHAR
STARTCHAR Agrave
ENCODING 192
SWIDTH 702 0
DWIDTH 20 0
BBX 21 31 -1 -1
BITMAP
000006000000
00001FD00000
00002FF40000
00002FFD0000
00000BFF4000
000001FFC000
0000007FD000
0000001FC000
000000014000
000000000000
000002E40000
000007FD0000
00001FFE0000
0002FFFE0000
000BFFFF0000
001FFFFF0000
002FFFFF4000
007FFDFF8000
00BFF4FF8000
00FFE0BFC000
02FFC0BFFD00
03FFABFFFF80
0BFFFFFFFF00
0FFFFFFFF800
1FF9FFFFF400
3FF4A95FF400
7FE0001FF800
7FD000FFF400
3FC0003FE000
1F40002F8000
000000040000
ENDCHAR
STARTCHAR Aacute
ENCODING 193
SWIDTH 702 0
DWIDTH 20 0
BBX 21 31 -1 -1
BITMAP
000000064000
0000001FC000
0000007FD000
000001FFE000
000007FF4000
00001FFD0000
00001FF40000
00001F800000
000005000000
000000000000
000002E40000
000007FD0000
00001FFE0000
0002FFFE0000
000BFFFF0000
001FFFFF0000
002FFFFF4000
007FFDFF8000
00BFF4FF8000
00FFE0BFC000
02FFC0BFFD00
03FFABFFFF80
0BFFFFFFFF00
0FFFFFFFF800
1FF9FFFFF400
3FF4A95FF400
7FE0001FF800
7FD000FFF400
3FC0003FE000
1F40002F8000
000000040000
ENDCHAR
STARTCHAR Acircumflex
ENCODING 194
SWIDTH 702 0
DWIDTH 20 0
BBX 21 30 -1 -1
BITMAP
000000640000
000002FD0000
00000FFF8000
00007FFFE000
0001FF9FF800
0001FE07F800
0000B801F400
000010005000
000000000000
000002E40000
000007FD0000
00001FFE0000
0002FFFE0000
000BFFFF0000
001FFFFF0000
002FFFFF4000
007FFDFF8000
00BFF4FF8000
00FFE0BFC000
02FFC0BFFD00
03FFABFFFF80
0BFFFFFFFF00
0FFFFFFFF800
1FF9FFFFF400
3FF4A95FF400
7FE0001FF800
7FD000FFF400
3FC0003FE000
1F40002F8000
000000040000
ENDCHAR
STARTCHAR Atilde
ENCODING 195
SWIDTH 702 0
DWIDTH 20 0
BBX 22 28 -1 -1
BITMAP
000006F80690
00001FFF6FD0
00003FFFFF80
0000BF7FFF00
0000FD1FFD00
000050015000
000000000000
000002E40000
000007FD0000
00001FFE0000
0002FFFE0000
000BFFFF0000
001FFFFF0000
002FFFFF4000
007FFDFF8000
00BFF4FF8000
00FFE0BFC000
02FFC0BFFD00
03FFABFFFF80
0BFFFFFFFF00
0FFFFFFFF800
1FF9FFFFF400
3FF4A95FF400
7FE0001FF800
7FD000FFF400
3FC0003FE000
1F40002F8000
000000040000
ENDCHAR
STARTCHAR Adieresis
ENCODING 196
SWIDTH 702 0
DWIDTH 20 0
BBX 21 28 -1 -1
BITMAP
000014005000
0000FD03F800
0001FF43FE00
0001FF03FD00
0000FC01B400
000000000000
000000000000
000002E40000
000007FD0000
00001FFE0000
0002FFFE0000
000BFFFF0000
001FFFFF0000
002FFFFF4000
007FFDFF8000
00BFF4FF8000
00FFE0BFC000
02FFC0BFFD00
03FFABFFFF80
0BFFFFFFFF00
0FFFFFFFF800
1FF9FFFFF400
3FF4A95FF400
7FE0001FF800
7FD000FFF400
3FC0003FE000
1F40002F8000
000000040000
ENDCHAR
STARTCHAR Aring
ENCODING 197
SWIDTH 702 0
DWIDTH 20 0
BBX 21 28 -1 -1
BITMAP
000000074000
0000002F8000
000000BFC000
000002FFD000
000007E7F000
00000FEBF000
00000FFFF000
00000BFFD000
00000BFE0000
00001FFE0000
0002FFFE0000
000BFFFF0000
001FFFFF0000
002FFFFF4000
007FFDFF8000
00BFF4FF8000
00FFE0BFC000
02FFC0BFFD00
03FFABFFFF80
0BFFFFFFFF00
0FFFFFFFF800
1FF9FFFFF400
3FF4A95FF400
7FE0001FF800
7FD000FFF400
3FC0003FE000
1F40002F8000
000000040000
ENDCHAR
STARTCHAR AE
ENCODING 198
SWIDTH 1153 0
DWIDTH 32 0
BBX 35 21 -2 -1
BITMAP
0000002E400005AFE0
0000007FD006FFFFFC
000002FFE1BFFFFFFC
00006FFFE7FFFFFFF4
0000FFFFD3FFFFFA40
0002FFFFE3FFFA4000
0007FFFFE2FF800000
000FFF7FE0FFAAA000
002FFD3FE1FFFFF800
007FF43FF2FFFFFE00
00BFE02FFFFFFFFD00
01FFEAFFFFFFFFE000
03FFFFFFFFFD550000
0BFFFFFFFFF4000000
1FF9FFFFFFF0001900
2FF4A95FFFFAAFFF80
7FE0002FFFFFFFFFD0
BFC001FFFFFFFFFFC0
7F8000BFEFFFFFFE00
3E00007F46FFFE9400
000000000004000000
ENDCHAR
STARTCHAR Ccedilla
ENCODING 199
SWIDTH 611 0
DWIDTH 17 0
BBX 17 29 0 -9
BITMAP
000001F800
00001FFE00
0001FFFF40
001BFFFF40
00BFFFFF00
02FFFFF800
0BFFFE0000
2FFFE00000
7FFE400000
BFF8000000
FFE0000000
FF80000000
FF40000000
BF40000000
7FD4000000
3FFFFAA400
1FFFFFFD00
0BFFFFFE00
01FFFFFD00
002FFFE400
00BF000000
00FE000000
00FFD00000
007FF80000
0006FD0000
0001FE0000
0BFFFD0000
0BFFF80000
02AA400000
ENDCHAR
STARTCHAR Egrave
ENCODING 200
SWIDTH 626 0
DWIDTH 18 0
BBX 18 31 0 -1
BITMAP
0000900000
0002F80000
0003FE0000
0003FF8000
0001FFE000
00002FF800
00000BFC00
000001F800
0000001000
0000000000
000016BFC0
001AFFFFF0
06FFFFFFF0
0FFFFFFFD0
0FFFFFE900
0BFFF90000
07FE000000
03FFAA8000
03FFFFE000
0BFFFFFC00
0FFFFFF800
1FFFFF9000
3FF5540000
BFE0000000
BFD0006800
BFEABFFE00
7FFFFFFF40
7FFFFFFF40
2FFFFFFD00
0BFFFE5000
0010000000
ENDCHAR
STARTCHAR Eacute
ENCODING 201
SWIDTH 626 0
DWIDTH 18 0
BBX 18 31 0 -1
BITMAP
0000001800
000000BE00
000002FF40
00000BFF40
00002FFD00
00007FF000
0000BF8000
0000BE0000
0000240000
0000000000
000016BFC0
001AFFFFF0
06FFFFFFF0
0FFFFFFFD0
0FFFFFE900
0BFFF90000
07FE000000
03FFAA8000
03FFFFE000
0BFFFFFC00
0FFFFFF800
1FFFFF9000
3FF5540000
BFE0000000
BFD0006800
BFEABFFE00
7FFFFFFF40
7FFFFFFF40
2FFFFFFD00
0BFFFE5000
0010000000
ENDCHAR
STARTCHAR Ecircumflex
ENCODING 202
SWIDTH 626 0
DWIDTH 18 0
BBX 18 30 0 -1
BITMAP
0000064000
00002FE000
0000BFF800
0002FFFE00
000FF8FFC0
000FE03FC0
000B800F80
0002000200
0000000000
000016BFC0
001AFFFFF0
06FFFFFFF0
0FFFFFFFD0
0FFFFFE900
0BFFF90000
07FE000000
03FFAA8000
03FFFFE000
0BFFFFFC00
0FFFFFF800
1FFFFF9000
3FF5540000
BFE0000000
BFD0006800
BFEABFFE00
7FFFFFFF40
7FFFFFFF40
2FFFFFFD00
0BFFFE5000
0010000000
ENDCHAR
STARTCHAR Edieresis
ENCODING 203
SWIDTH 626 0
DWIDTH 18 0
BBX 18 28 0 -1
BITMAP
0001400500
000BE02FD0
000FF42FE0
001FF42FD0
000BD00B40
0000000000
0000000000
000016BFC0
001AFFFFF0
06FFFFFFF0
0FFFFFFFD0
0FFFFFE900
0BFFF90000
07FE000000
03FFAA8000
03FFFFE000
0BFFFFFC00
0FFFFFF800
1FFFFF9000
3FF5540000
BFE0000000
BFD0006800
BFEABFFE00
7FFFFFFF40
7FFFFFFF40
2FFFFFFD00
0BFFFE5000
0010000000
ENDCHAR
STARTCHAR Igrave
ENCODING 204
SWIDTH 515 0
DWIDTH 14 0
BBX 19 32 -1 -1
BITMAP
0000A00000
0001F80000
0003FF0000
0003FFC000
0000BFF000
00002FF800
00000BFC00
000001FC00
0000001400
0000000000
0000155500
006BFFFFE0
00FFFFFFF8
00BFFFFFFC
007FFFFFA4
00297FC000
00007FC000
0000BF8000
0000FF4000
0001FF0000
0002FE0000
0003FD0000
0007FC0000
000BF80000
001FF40000
002FF00000
017FFA0000
BFFFFFC000
FFFFFFD000
BFFFFF8000
7FA5500000
1400000000
ENDCHAR
STARTCHAR Iacute
ENCODING 205
SWIDTH 515 0
DWIDTH 14 0
BBX 19 32 -1 -1
BITMAP
0000000090
00000007F0
0000001FF8
0000007FF8
000001FFE0
000007FF40
000007FD00
000007E000
0000014000
0000000000
0000155500
006BFFFFE0
00FFFFFFF8
00BFFFFFFC
007FFFFFA4
00297FC000
00007FC000
0000BF8000
0000FF4000
0001FF0000
0002FE0000
0003FD0000
0007FC0000
000BF80000
001FF40000
002FF00000
017FFA0000
BFFFFFC000
FFFFFFD000
BFFFFF8000
7FA5500000
1400000000
ENDCHAR
STARTCHAR Icircumflex
ENCODING 206
SWIDTH 515 0
DWIDTH 14 0
BBX 19 31 -1 -1
BITMAP
0000019000
000007F800
00002FFF00
0000BFFFD0
0002FF6FF4
0003FD0BF4
0001F402E0
0000500040
0000000000
0000155500
006BFFFFE0
00FFFFFFF8
00BFFFFFFC
007FFFFFA4
00297FC000
00007FC000
0000BF8000
0000FF4000
0001FF0000
0002FE0000
0003FD0000
0007FC0000
000BF80000
001FF40000
002FF00000
017FFA0000
BFFFFFC000
FFFFFFD000
BFFFFF8000
7FA5500000
1400000000
ENDCHAR
STARTCHAR Idieresis
ENCODING 207
SWIDTH 515 0
DWIDTH 14 0
BBX 20 29 -1 -1
BITMAP
0000140150
0001FD03F8
0002FF07FD
0002FE07FC
0001F801E0
0000000000
0000000000
0000155500
006BFFFFE0
00FFFFFFF8
00BFFFFFFC
007FFFFFA4
00297FC000
00007FC000
0000BF8000
0000FF4000
0001FF0000
0002FE0000
0003FD0000
0007FC0000
000BF80000
001FF40000
002FF00000
017FFA0000
BFFFFFC000
FFFFFFD000
BFFFFF8000
7FA5500000
1400000000
ENDCHAR
STARTCHAR Eth
ENCODING 208
SWIDTH 656 0
DWIDTH 18 0
BBX 19 22 -1 -1
BITMAP
0010000000
003D000000
007FE40000
003FFF4000
007FFFE000
00BFFFFD00
007F1BFF40
003F40BFD0
01BFA01FF0
7FFFF807F4
7FFFFD02F8
7FFFFD03FC
3FFF901FFC
14BF41BFF4
00FF5BFFE0
01FFFFFF80
02FFFFFE00
02FFFFE400
02FFFE4000
01FFE40000
00BD000000
0010000000
ENDCHAR
STARTCHAR Ntilde
ENCODING 209
SWIDTH 684 0
DWIDTH 19 0
BBX 22 28 -1 0
BITMAP
000002BE06A0
00000BFF8FE0
00002FFFFFD0
00003FAFFF80
00007F0BFE00
000010015000
000000000000
000000001000
0002D000B400
0003F800BE00
000BFE01FF80
000FFF02FF80
002FFF02FF40
003FFE03FF00
007FFD03FE00
00FFFC07FD00
01FFFC0BFD00
03FFFC0FFC00
07FFFC1FFC00
0FFFFC3FFC00
1FFFFDBFF800
3FFFFFFFF400
7FFDFFFFF000
3FF87FFFD000
3FF02FFF8000
2FF00FFF0000
0FD002F80000
078000500000
ENDCHAR
STARTCHAR Ograve
ENCODING 210
SWIDTH 744 0
DWIDTH 21 0
BBX 20 31 0 -1
BITMAP
0000019000
000003F400
000007FD00
00000BFF40
000001FFD0
0000007FF4
0000001FF8
00000002F4
0000000050
000000A400
000006FC00
00001FFF40
00007FFF80
0002FFFF40
000BFFFF40
002FFFFF80
00BFFFBFD0
02FFF42FE0
07FF800FF4
0FFE0007F8
2FF80003FC
3FF40002FD
7FD00002FE
BFC0001BFE
BF8001BFFE
BFEABFFFFD
7FFFFFFFF4
2FFFFFFFD0
0FFFFFF900
02FFFA4000
0001400000
ENDCHAR
STARTCHAR Oacute
ENCODING 211
SWIDTH 744 0
DWIDTH 21 0
BBX 20 31 0 -1
BITMAP
0000001900
0000007F00
000001FF40
000007FF80
00001FFD00
00007FF400
00007FD000
00007E0000
0000140000
000000A400
000006FC00
00001FFF40
00007FFF80
0002FFFF40
000BFFFF40
002FFFFF80
00BFFFBFD0
02FFF42FE0
07FF800FF4
0FFE0007F8
2FF80003FC
3FF40002FD
7FD00002FE
BFC0001BFE
BF8001BFFE
BFEABFFFFD
7FFFFFFFF4
2FFFFFFFD0
0FFFFFF900
02FFFA4000
0001400000
ENDCHAR
STARTCHAR Ocircumflex
ENCODING 212
SWIDTH 744 0
DWIDTH 21 0
BBX 20 30 0 -1
BITMAP
0000006400
000002FE00
00000BFF80
00002FFFF0
0000BFCBFD
0000FF42FD
00007D00B8
0000100020
000000A400
000006FC00
00001FFF40
00007FFF80
0002FFFF40
000BFFFF40
002FFFFF80
00BFFFBFD0
02FFF42FE0
07FF800FF4
0FFE0007F8
2FF80003FC
3FF40002FD
7FD00002FE
BFC0001BFE
BF8001BFFE
BFEABFFFFD
7FFFFFFFF4
2FFFFFFFD0
0FFFFFF900
02FFFA4000
0001400000
ENDCHAR
STARTCHAR Otilde
ENCODING 213
SWIDTH 744 0
DWIDTH 21 0
BBX 21 28 0 -1
BITMAP
00000AF81A80
00002FFE3F80
0000BFFFFF40
0000FEBFFE00
0001FC2FF800
000040054000
000000A40000
000006FC0000
00001FFF4000
00007FFF8000
0002FFFF4000
000BFFFF4000
002FFFFF8000
00BFFFBFD000
02FFF42FE000
07FF800FF400
0FFE0007F800
2FF80003FC00
3FF40002FD00
7FD00002FE00
BFC0001BFE00
BF8001BFFE00
BFEABFFFFD00
7FFFFFFFF400
2FFFFFFFD000
0FFFFFF90000
02FFFA400000
000140000000
ENDCHAR
STARTCHAR Odieresis
ENCODING 214
SWIDTH 744 0
DWIDTH 21 0
BBX 20 28 0 -1
BITMAP
0000140050
0000FE02FC
0001FF42FE
0001FF43FD
0000FD00B4
0000000000
000000A400
000006FC00
00001FFF40
00007FFF80
0002FFFF40
000BFFFF40
002FFFFF80
00BFFFBFD0
02FFF42FE0
07FF800FF4
0FFE0007F8
2FF80003FC
3FF40002FD
7FD00002FE
BFC0001BFE
BF8001BFFE
BFEABFFFFD
7FFFFFFFF4
2FFFFFFFD0
0FFFFFF900
02FFFA4000
0001400000
ENDCHAR
STARTCHAR multiply
ENCODING 215
SWIDTH 490 0
DWIDTH 14 0
BBX 14 15 0 0
BITMAP
05000000
0F8007C0
0FE02FE0
0FF5FFD0
07FFFF40
02FFF800
00FFD000
02FF8000
0BFFD000
2FFFE000
7FD7F800
BF02FC00
FD01FD00
F800B800
74001000
ENDCHAR
STARTCHAR Oslash
ENCODING 216
SWIDTH 744 0
DWIDTH 21 0
BBX 20 25 0 -4
BITMAP
000000A404
000006FC3D
00001FFFFE
00007FFFFE
0002FFFFFE
000BFFFFFD
002FFFFFF4
00BFFFFFE0
02FFF6FFE0
07FF87FFF4
0FFE1FFFF8
2FF83FF7FC
3FF4BFD2FD
7FD2FF82FE
BFC7FE1BFE
BF9FFDBFFE
BFFFFFFFFD
7FFFFFFFF4
3FFFFFFFD0
1FFFFFF900
07FFFA4000
07FD400000
07FD000000
03F8000000
0060000000
ENDCHAR
STARTCHAR Ugrave
ENCODING 217
SWIDTH 695 0
DWIDTH 19 0
BBX 19 28 1 0
BITMAP
0009000000
002F800000
007FE00000
007FF80000
001FFE0000
0002FF8000
0000BF8000
00002F8000
00000201D0
00000002F0
0A000003F4
2F400007F8
2FC00007FC
3FD0000BFC
3FE0000FFC
7FE0001FF8
7FD0003FF8
BFD000BFF0
BFD001FFE0
BFD007FFC0
BFD06FFF40
BFE6FFFD00
7FFFFFF400
2FFFFFE000
2FFFFF8000
1FFFFE0000
0BFFE40000
01AA400000
ENDCHAR
STARTCHAR Uacute
ENCODING 218
SWIDTH 695 0
DWIDTH 19 0
BBX 19 29 1 0
BITMAP
0000000900
0000007F00
000001FF80
000007FF80
00001FFE00
00007FF400
00007FD000
00007E0000
0000140000
00000001D0
00000002F0
0A000003F4
2F400007F8
2FC00007FC
3FD0000BFC
3FE0000FFC
7FE0001FF8
7FD0003FF8
BFD000BFF0
BFD001FFE0
BFD007FFC0
BFD06FFF40
BFE6FFFD00
7FFFFFF400
2FFFFFE000
2FFFFF8000
1FFFFE0000
0BFFE40000
01AA400000
ENDCHAR
STARTCHAR Ucircumflex
ENCODING 219
SWIDTH 695 0
DWIDTH 19 0
BBX 19 29 1 0
BITMAP
0000190000
00007F8000
0002FFF000
000BFFFD00
002FF6FF40
003FD0BF40
001F402E00
0005000400
0000000000
00000001D0
00000002F0
0A000003F4
2F400007F8
2FC00007FC
3FD0000BFC
3FE0000FFC
7FE0001FF8
7FD0003FF8
BFD000BFF0
BFD001FFE0
BFD007FFC0
BFD06FFF40
BFE6FFFD00
7FFFFFF400
2FFFFFE000
2FFFFF8000
1FFFFE0000
0BFFE40000
01AA400000
ENDCHAR
STARTCHAR Udieresis
ENCODING 220
SWIDTH 695 0
DWIDTH 19 0
BBX 19 27 1 0
BITMAP
0001001500
002F807F40
003FE07FC0
003FE0BF80
002F401E00
0000000000
0000000000
00000001D0
00000002F0
0A000003F4
2F400007F8
2FC00007FC
3FD0000BFC
3FE0000FFC
7FE0001FF8
7FD0003FF8
BFD000BFF0
BFD001FFE0
BFD007FFC0
BFD06FFF40
BFE6FFFD00
7FFFFFF400
2FFFFFE000
2FFFFF8000
1FFFFE0000
0BFFE40000
01AA400000
ENDCHAR
STARTCHAR Yacute
ENCODING 221
SWIDTH 493 0
DWIDTH 14 0
BBX 16 32 1 -1
BITMAP
000000A0
000002F4
00000FFC
00002FFC
0000BFE0
0002FF80
0003FE00
0003F400
00014000
00000000
10000060
7E0002F8
7F800BFE
7FC02FFE
3FD0BFFD
3FE1FFF0
3FE3FFD0
2FFBFF40
1FFFFD00
0FFFF800
0BFFF400
07FFE000
02FFC000
07FF4000
0BFE0000
1FFD0000
2FF80000
7FF40000
BFD00000
BFC00000
7F800000
1A000000
ENDCHAR
STARTCHAR Thorn
ENCODING 222
SWIDTH 680 0
DWIDTH 19 0
BBX 20 22 0 -1
BITMAP
0010000000
00B4000000
01F8000000
02FD000000
07FEA54000
07FFFFFE00
0BFFFFFFD0
0BFFFFFFF4
0FFD55BFF8
1FFC002FFC
2FF800BFFD
3FF407FFF8
3FF47FFFE0
3FFBFFFF80
3FFFFFF800
7FFFFE4000
3FFFD40000
3FF9000000
2FE0000000
1FE0000000
0FD0000000
0100000000
ENDCHAR
STARTCHAR germandbls
ENCODING 223
SWIDTH 931 0
DWIDTH 26 0
BBX 29 18 0 -1
BITMAP
00006AE4001AB900
001BFFFC06FFFF40
06FFFFFEBFFFFF80
2FFFFFFFFFFFFFC0
7FFF956FFFE55540
BFFD002FFF400000
BFFF902FFFF40000
7FFFF00FFFFC0000
06AFF801ABFE0000
0001BD00006F4000
00007E00001F8000
0000FE00003F8000
000BFD0002FF4000
05BFF8016FFF0000
2FFFE00BFFFC0000
2FFF800BFFE00000
1FF90007FE400000
0540000150000000
ENDCHAR
STARTCHAR agrave
ENCODING 224
SWIDTH 581 0
DWIDTH 16 0
BBX 17 27 -1 -1
BITMAP
0000600000
0001FD0000
0002FF4000
0002FFD000
0000BFF400
00001FFC00
000007FD00
000001BD00
0000001400
0000140000
00003F8000
0000BFC000
001BFFD000
002FFFD000
007FFFE000
00FFEFE000
01FF8FF000
02FF0BF500
07FD1BFF80
0BFFFFFFC0
1FFFFFFE40
2FEBFFFD00
3FC295FD00
7F8006FD00
7F400BFC00
2E0003F400
0400004000
ENDCHAR
STARTCHAR aacute
ENCODING 225
SWIDTH 581 0
DWIDTH 16 0
BBX 17 28 -1 -1
BITMAP
0000006000
000002F800
00000BFD00
00002FFD00
0000BFF400
0001FFC000
0002FE0000
0002F80000
0000900000
0000000000
0000140000
00003F8000
0000BFC000
001BFFD000
002FFFD000
007FFFE000
00FFEFE000
01FF8FF000
02FF0BF500
07FD1BFF80
0BFFFFFFC0
1FFFFFFE40
2FEBFFFD00
3FC295FD00
7F8006FD00
7F400BFC00
2E0003F400
0400004000
ENDCHAR
STARTCHAR acircumflex
ENCODING 226
SWIDTH 581 0
DWIDTH 16 0
BBX 17 26 -1 -1
BITMAP
00000A0000
00007FD000
0001FFF400
0007FFFD00
001FF5FF80
002FE07F80
000F401F00
0005000500
0000140000
00003F8000
0000BFC000
001BFFD000
002FFFD000
007FFFE000
00FFEFE000
01FF8FF000
02FF0BF500
07FD1BFF80
0BFFFFFFC0
1FFFFFFE40
2FEBFFFD00
3FC295FD00
7F8006FD00
7F400BFC00
2E0003F400
0400004000
ENDCHAR
STARTCHAR atilde
ENCODING 227
SWIDTH 581 0
DWIDTH 16 0
BBX 19 25 -1 -1
BITMAP
0000BE41A4
0007FFD7F4
000FFFFFF0
001FEFFFD0
002F87FF40
0004005400
0000000000
0000140000
00003F8000
0000BFC000
001BFFD000
002FFFD000
007FFFE000
00FFEFE000
01FF8FF000
02FF0BF500
07FD1BFF80
0BFFFFFFC0
1FFFFFFE40
2FEBFFFD00
3FC295FD00
7F8006FD00
7F400BFC00
2E0003F400
0400004000
ENDCHAR
STARTCHAR adieresis
ENCODING 228
SWIDTH 581 0
DWIDTH 16 0
BBX 18 25 -1 -1
BITMAP
0000400540
000BE02FD0
000FF82FF0
000FF42FE0
000BD00B80
0000000000
0000000000
0000140000
00003F8000
0000BFC000
001BFFD000
002FFFD000
007FFFE000
00FFEFE000
01FF8FF000
02FF0BF500
07FD1BFF80
0BFFFFFFC0
1FFFFFFE40
2FEBFFFD00
3FC295FD00
7F8006FD00
7F400BFC00
2E0003F400
0400004000
ENDCHAR
STARTCHAR aring
ENCODING 229
SWIDTH 581 0
DWIDTH 16 0
BBX 17 24 -1 -1
BITMAP
000000B000
000007F400
00001FF800
00003FFC00
0000BEBE00
0000FEBF00
0001FFFE00
0000FFF800
0000BFD000
001BFFD000
002FFFD000
007FFFE000
00FFEFE000
01FF8FF000
02FF0BF500
07FD1BFF80
0BFFFFFFC0
1FFFFFFE40
2FEBFFFD00
3FC295FD00
7F8006FD00
7F400BFC00
2E0003F400
0400004000
ENDCHAR
STARTCHAR ae
ENCODING 230
SWIDTH 948 0
DWIDTH 27 0
BBX 29 18 -2 -1
BITMAP
0000014000015A00
000007F401BFFF80
00001FF87FFFFFC0
0002FFF9FFFFFF40
000BFFF9FFFF9400
001FFFF8FF940000
003FFBF87F954000
007FD3FCBFFFD000
00FF83FDFFFFF800
02FE07FFFFFFE000
07FFFFFFFEAA4000
0FFFFFFFFC000000
2FEBFFFFF4006400
3FC295FFFABFFD00
BF8007FFFFFFFE00
BF000BFFFFFFFD00
7D0007E2FFFF9000
1000014015400000
ENDCHAR
STARTCHAR ccedilla
ENCODING 231
SWIDTH 513 0
DWIDTH 14 0
BBX 14 25 0 -8
BITMAP
00000900
00007F80
0007FFE0
006FFFE0
02FFFFC0
0BFFF900
2FFF4000
7FF90000
FFD00000
FF400000
FE000000
BE000000
BF500000
3FFFFA00
1FFFFFC0
07FFFFC0
00BFFF40
00BD4000
01FD0000
01FF8000
006FF000
0002F800
06ABF800
0FFFF000
02FE4000
ENDCHAR
STARTCHAR egrave
ENCODING 232
SWIDTH 521 0
DWIDTH 15 0
BBX 16 27 0 -1
BITMAP
00640000
00FD0000
01FF4000
01FFD000
007FF400
001FFD00
0007FE00
0000BD00
00001400
000005A0
001AFFF8
06FFFFFD
1FFFFFF4
0FFFF940
0FF94000
07F95400
0BFFFE00
0FFFFF80
1FFFFE00
3FEAA400
7FC00000
BF400640
BFABFFD0
7FFFFFE0
7FFFFFD0
1FFFF900
01540000
ENDCHAR
STARTCHAR eacute
ENCODING 233
SWIDTH 521 0
DWIDTH 15 0
BBX 16 27 0 -1
BITMAP
00000280
00000BD0
00002FF0
0000BFF0
0002FF80
000BFE00
000FF800
000FD000
00050000
000005A0
001AFFF8
06FFFFFD
1FFFFFF4
0FFFF940
0FF94000
07F95400
0BFFFE00
0FFFFF80
1FFFFE00
3FEAA400
7FC00000
BF400640
BFABFFD0
7FFFFFE0
7FFFFFD0
1FFFF900
01540000
ENDCHAR
STARTCHAR ecircumflex
ENCODING 234
SWIDTH 521 0
DWIDTH 15 0
BBX 16 26 0 -1
BITMAP
00001900
0000BF40
0003FFE0
000FFFF8
007FE3FE
007F81FF
002E007D
00040004
000005A0
001AFFF8
06FFFFFD
1FFFFFF4
0FFFF940
0FF94000
07F95400
0BFFFE00
0FFFFF80
1FFFFE00
3FEAA400
7FC00000
BF400640
BFABFFD0
7FFFFFE0
7FFFFFD0
1FFFF900
01540000
ENDCHAR
STARTCHAR edieresis
ENCODING 235
SWIDTH 521 0
DWIDTH 15 0
BBX 17 25 0 -1
BITMAP
0001001500
002F80BF40
003FE0BFC0
003FD0BF80
002F402E00
0000000000
0000000000
000005A000
001AFFF800
06FFFFFD00
1FFFFFF400
0FFFF94000
0FF9400000
07F9540000
0BFFFE0000
0FFFFF8000
1FFFFE0000
3FEAA40000
7FC0000000
BF40064000
BFABFFD000
7FFFFFE000
7FFFFFD000
1FFFF90000
0154000000
ENDCHAR
STARTCHAR igrave
ENCODING 236
SWIDTH 320 0
DWIDTH 9 0
BBX 10 28 1 -1
BITMAP
060000
0FD000
2FF400
2FFD00
0BFF40
01FFD0
007FD0
000BD0
000140
000000
008000
03D000
07F000
0BF000
0FF400
0FF400
1FF000
2FE000
3FD000
3FC000
7FC000
7F8000
7F8000
7F8000
3F8000
2F8000
1F8000
050000
ENDCHAR
STARTCHAR iacute
ENCODING 237
SWIDTH 320 0
DWIDTH 9 0
BBX 14 28 1 -1
BITMAP
00000240
00001FC0
00007FE0
0001FFE0
0007FF80
001FFD00
001FF400
001F8000
00050000
00000000
00800000
03D00000
07F00000
0BF00000
0FF40000
0FF40000
1FF00000
2FE00000
3FD00000
3FC00000
7FC00000
7F800000
7F800000
7F800000
3F800000
2F800000
1F800000
05000000
ENDCHAR
STARTCHAR icircumflex
ENCODING 238
SWIDTH 320 0
DWIDTH 9 0
BBX 12 27 1 -1
BITMAP
002800
01FF40
07FFD0
1FFFF4
BFD7FD
BF42FD
7D007C
140014
000000
008000
03D000
07F000
0BF000
0FF400
0FF400
1FF000
2FE000
3FD000
3FC000
7FC000
7F8000
7F8000
7F8000
3F8000
2F8000
1F8000
050000
ENDCHAR
STARTCHAR idieresis
ENCODING 239
SWIDTH 320 0
DWIDTH 9 0
BBX 12 25 1 -1
BITMAP
040054
BE01FD
FF82FF
FF42FE
BD0078
000000
000000
008000
03D000
07F000
0BF000
0FF400
0FF400
1FF000
2FE000
3FD000
3FC000
7FC000
7F8000
7F8000
7F8000
3F8000
2F8000
1F8000
050000
ENDCHAR
STARTCHAR eth
ENCODING 240
SWIDTH 541 0
DWIDTH 15 0
BBX 16 18 -1 -1
BITMAP
00900000
01FE4000
00FFF400
01FFFE00
01FAFF80
01F86FF0
05FD02F8
7FFF80BD
BFFFD07E
7FFF80FE
3AFC07FD
02F87FFC
03FFFFF0
07FFFF80
07FFF900
07FF9000
02F80000
00400000
ENDCHAR
STARTCHAR ntilde
ENCODING 241
SWIDTH 564 0
DWIDTH 16 0
BBX 21 24 -1 0
BITMAP
00001BE41A40
00007FFD7F40
0000FFFFFE00
0002FDFFFD00
0003F87FF400
000040054000
000000000000
000500080000
000F801F4000
002FE02FD000
003FF03FD000
007FF07FC000
00FFE07F8000
01FFD0BF4000
03FFD0FF0000
07FFD1FF0000
0FFFD2FF0000
1FFFD7FE0000
2FFFEFFD0000
7FF7FFFC0000
7FE2FFF80000
3FC0FFE00000
1FC07FC00000
0B400A000000
ENDCHAR
STARTCHAR ograve
ENCODING 242
SWIDTH 628 0
DWIDTH 18 0
BBX 17 27 0 -1
BITMAP
0000600000
0000FD0000
0002FF4000
0002FFD000
00007FF400
00001FFD00
000007FD00
000000BD00
0000001400
00001F4000
0000BFD000
0002FFF000
000FFFE000
003FFFE000
01FFFFF400
03FF97F800
0BFE01FD00
1FF800BE00
3FE0007F00
7FC0003F40
BF4000BF80
BF000BFF40
BFEAFFFF00
7FFFFFFD00
2FFFFFE000
0BFFF90000
0055000000
ENDCHAR
STARTCHAR oacute
ENCODING 243
SWIDTH 628 0
DWIDTH 18 0
BBX 17 28 0 -1
BITMAP
0000009000
000002F400
00000FF800
00003FFC00
0000FFE000
0002FF8000
0003FD0000
0003F40000
0001400000
0000000000
00001F4000
0000BFD000
0002FFF000
000FFFE000
003FFFE000
01FFFFF400
03FF97F800
0BFE01FD00
1FF800BE00
3FE0007F00
7FC0003F40
BF4000BF80
BF000BFF40
BFEAFFFF00
7FFFFFFD00
2FFFFFE000
0BFFF90000
0055000000
ENDCHAR
STARTCHAR ocircumflex
ENCODING 244
SWIDTH 628 0
DWIDTH 18 0
BBX 18 27 0 -1
BITMAP
0000064000
00001FE000
0000BFFC00
0002FFFF40
000BFDBFD0
000FF42FD0
0007D00B80
0001400100
0000000000
00001F4000
0000BFD000
0002FFF000
000FFFE000
003FFFE000
01FFFFF400
03FF97F800
0BFE01FD00
1FF800BE00
3FE0007F00
7FC0003F40
BF4000BF80
BF000BFF40
BFEAFFFF00
7FFFFFFD00
2FFFFFE000
0BFFF90000
0055000000
ENDCHAR
STARTCHAR otilde
ENCODING 245
SWIDTH 628 0
DWIDTH 18 0
BBX 20 25 0 -1
BITMAP
00006F9069
0001FFF5FD
0003FFFFF8
000BF7FFF4
000FE1FFD0
0001001500
0000000000
00001F4000
0000BFD000
0002FFF000
000FFFE000
003FFFE000
01FFFFF400
03FF97F800
0BFE01FD00
1FF800BE00
3FE0007F00
7FC0003F40
BF4000BF80
BF000BFF40
BFEAFFFF00
7FFFFFFD00
2FFFFFE000
0BFFF90000
0055000000
ENDCHAR
STARTCHAR odieresis
ENCODING 246
SWIDTH 628 0
DWIDTH 18 0
BBX 19 25 0 -1
BITMAP
0000500540
0007F40FE0
000BFC1FF4
000BF81FF0
0007E00780
0000000000
0000000000
00001F4000
0000BFD000
0002FFF000
000FFFE000
003FFFE000
01FFFFF400
03FF97F800
0BFE01FD00
1FF800BE00
3FE0007F00
7FC0003F40
BF4000BF80
BF000BFF40
BFEAFFFF00
7FFFFFFD00
2FFFFFE000
0BFFF90000
0055000000
ENDCHAR
STARTCHAR divide
ENCODING 247
SWIDTH 559 0
DWIDTH 16 0
BBX 15 18 0 -1
BITMAP
00004000
0003E000
000BF800
000BF800
000BF400
00069000
00000000
16AFFE80
BFFFFFE4
BFFFFFF4
7FFEAA50
15000000
00250000
00BF4000
01FF4000
00FF4000
007E0000
00140000
ENDCHAR
STARTCHAR oslash
ENCODING 248
SWIDTH 632 0
DWIDTH 18 0
BBX 17 21 0 -4
BITMAP
00001F4740
0000BFEF80
0002FFFF80
000FFFFF40
002FFFFF00
00FFFFFD00
03FFAFFC00
0BFE3FFD00
1FF8BFFF00
3FE1FE7F00
7FC7FC3F40
BF5FF4BF80
BF7FE7FF80
BFFFFFFF40
7FFFFFFD00
2FFFFFE400
0BFFFE0000
0BF9400000
0BF0000000
07E0000000
0040000000
ENDCHAR
STARTCHAR ugrave
ENCODING 249
SWIDTH 584 0
DWIDTH 16 0
BBX 16 26 1 0
BITMAP
00180000
007E4000
00BFD000
00BFF400
002FFC00
000BFF00
0001FF40
00007F00
00000500
00000024
0000003C
1800007D
2E0000BE
3F4000BF
3F8000FF
7FC001FE
7F8003FE
BF400BFC
BF402FF8
BF40BFF0
BF9BFFD0
7FFFFF40
3FFFFD00
2FFFF400
1FFF9000
06F90000
ENDCHAR
STARTCHAR uacute
ENCODING 250
SWIDTH 584 0
DWIDTH 16 0
BBX 16 25 1 0
BITMAP
000000A0
000002F4
00000FFC
00002FFC
0000BFE0
0002FF80
0003FE00
0003F400
00014024
0000003C
1800007D
2E0000BE
3F4000BF
3F8000FF
7FC001FE
7F8003FE
BF400BFC
BF402FF8
BF40BFF0
BF9BFFD0
7FFFFF40
3FFFFD00
2FFFF400
1FFF9000
06F90000
ENDCHAR
STARTCHAR ucircumflex
ENCODING 251
SWIDTH 584 0
DWIDTH 16 0
BBX 16 26 1 0
BITMAP
00006400
0002FE00
000BFF80
002FFFE0
00FFCBFC
00FF02FC
007D00B8
00200020
00000000
00000024
0000003C
1800007D
2E0000BE
3F4000BF
3F8000FF
7FC001FE
7F8003FE
BF400BFC
BF402FF8
BF40BFF0
BF9BFFD0
7FFFFF40
3FFFFD00
2FFFF400
1FFF9000
06F90000
ENDCHAR
STARTCHAR udieresis
ENCODING 252
SWIDTH 584 0
DWIDTH 16 0
BBX 16 24 1 0
BITMAP
00040054
00BE02FD
00FF82FF
00FF42FE
00BD00B8
00000000
00000000
00000024
0000003C
1800007D
2E0000BE
3F4000BF
3F8000FF
7FC001FE
7F8003FE
BF400BFC
BF402FF8
BF40BFF0
BF9BFFD0
7FFFFF40
3FFFFD00
2FFFF400
1FFF9000
06F90000
ENDCHAR
STARTCHAR yacute
ENCODING 253
SWIDTH 400 0
DWIDTH 11 0
BBX 15 29 1 -1
BITMAP
00000180
00000BE0
00002FF0
0000BFF4
0002FFD0
000BFE00
000FF800
000BD000
00010000
00000000
00000000
64001A00
7E007FC0
7F41FFD0
7F83FF80
3F8BFE00
3FDFF800
2FFFE000
1FFFC000
0FFF4000
07FF0000
07FD0000
0FF80000
1FF00000
3FE00000
7FC00000
BF400000
BF000000
2D000000
ENDCHAR
STARTCHAR thorn
ENCODING 254
SWIDTH 579 0
DWIDTH 16 0
BBX 17 17 0 0
BITMAP
01E0000000
03F0000000
07F4000000
0BFFFA4000
0FFFFFF800
0FFFFFFE00
1FF557FF00
2FE002FF40
2FE01BFF40
3FD1BFFE00
3FEBFFF400
3FFFFF8000
7FFFE40000
3FF9000000
2FC0000000
2FC0000000
0F80000000
ENDCHAR
STARTCHAR ydieresis
ENCODING 255
SWIDTH 400 0
DWIDTH 11 0
BBX 15 26 1 -1
BITMAP
00100140
02F80BF4
03FD0BF8
07FD0BF4
02F402D0
00000000
00000000
00000000
64001A00
7E007FC0
7F41FFD0
7F83FF80
3F8BFE00
3FDFF800
2FFFE000
1FFFC000
0FFF4000
07FF0000
07FD0000
0FF80000
1FF00000
3FE00000
7FC00000
BF400000
BF000000
2D000000
ENDCHAR
STARTCHAR dotlessi
ENCODING 305
SWIDTH 320 0
DWIDTH 9 0
BBX 7 18 1 -1
BITMAP
0080
03D0
07F0
0BF0
0FF4
0FF4
1FF0
2FE0
3FD0
3FC0
7FC0
7F80
7F80
7F80
3F80
2F80
1F80
0500
ENDCHAR
STARTCHAR Lslash
ENCODING 321
SWIDTH 632 0
DWIDTH 18 0
BBX 20 22 -3 -1
BITMAP
0000400000
0001F90000
0002FF4000
0002FF8000
0003FF4000
0007FF0000
000FFD0000
001FFE9000
002FFFF400
06FFFFF400
7FFFFE4000
BFFFE00000
3FFFD00000
1AFFC00000
01FF800000
02FF45AA40
02FFFFFFF8
02FFFFFFFE
01FFFFFFFF
00BFFFFFFE
003FF95010
0005400000
ENDCHAR
STARTCHAR lslash
ENCODING 322
SWIDTH 533 0
DWIDTH 15 0
BBX 18 18 -3 -1
BITMAP
0002900000
0003F80000
0007FC0000
000BF80000
000FF40000
001FF00000
003FFF4000
01BFFFC000
6FFFFD0000
BFFF900000
7FFF000000
1AFE000000
02FE15A400
02FFFFFF40
02FFFFFFC0
00FFFFFFD0
00BFFA5A40
0015400000
ENDCHAR
STARTCHAR OE
ENCODING 338
SWIDTH 1212 0
DWIDTH 34 0
BBX 35 22 0 -1
BITMAP
000000A40000000000
000006FC000016AFD0
00001FFF4016FFFFF8
00007FFF82FFFFFFF8
0002FFFF4BFFFFFFE0
000BFFFF47FFFFF940
002FFFFF87FFF90000
00BFFFBFD3FF400000
02FFF42FE1FFAA9000
07FF800FF6FFFFF400
0FFE0007FFFFFFFD00
2FF80003FFFFFFFD00
3FF40002FFFFFFE000
7FD00002FFF9550000
BFC0001BFFF0000000
BF8001BFFFE0005900
BFEABFFFFFEAAFFF40
7FFFFFFFFFFFFFFFC0
2FFFFFFFFFFFFFFF80
0FFFFFF91FFFFFFD00
02FFFA4007FFFE9000
000140000014000000
ENDCHAR
STARTCHAR oe
ENCODING 339
SWIDTH 1010 0
DWIDTH 28 0
BBX 29 18 0 -1
BITMAP
00001F4000016900
0000BFD001BFFF80
0002FFF0BFFFFFC0
000FFFE2FFFFFE40
003FFFE1FFFE9000
01FFFFF5FF940000
03FF97F8BF554000
0BFE01FDBFFFD000
1FF800BFFFFFF400
3FE0007FFFFFE000
7FC0003FFEAA4000
BF4000BFF8000000
BF001BFFF0006000
BFEBFFFFFABFFD00
7FFFFFFFFFFFFE00
2FFFFFEBFFFFF800
0BFFF902FFFF9000
0055000015000000
ENDCHAR
STARTCHAR Scaron
ENCODING 352
SWIDTH 576 0
DWIDTH 16 0
BBX 20 31 0 -1
BITMAP
0001000100
0007D00B80
000FF42FD0
000BFCBFD0
0002FFFF40
0000BFFC00
00001FE000
0000064000
0000000000
0000005500
00006FFFE0
001BFFFFF4
01FFFFFFF8
1FFFFFFFFD
7FFFFA6AA4
BFFF400000
BFFFE00000
BFFFFD0000
3FFFFF0000
06BFFF8000
00007FD000
00000BE000
00000FF000
00002FF000
0002FFE000
056FFFC000
1FFFFF4000
1FFFFC0000
1FFFD00000
0FFD000000
0140000000
ENDCHAR
STARTCHAR scaron
ENCODING 353
SWIDTH 463 0
DWIDTH 13 0
BBX 16 28 0 -1
BITMAP
00500050
01F401F0
02FD0BF4
02FF5FF4
007FFFD0
001FFF40
0007FD00
0000A000
00000000
00000000
00006AE4
001BFFFC
06FFFFFE
2FFFFFFF
7FFF9554
BFFD0000
BFFF9000
7FFFF000
06AFF800
0001BD00
00007E00
0000FE00
000BFD00
05BFF800
2FFFE000
2FFF8000
1FF90000
05400000
ENDCHAR
STARTCHAR Ydieresis
ENCODING 376
SWIDTH 493 0
DWIDTH 14 0
BBX 16 29 1 -1
BITMAP
00040054
00BE02FD
00FF82FF
00FF42FE
00BD00B8
00000000
00000000
10000060
7E0002F8
7F800BFE
7FC02FFE
3FD0BFFD
3FE1FFF0
3FE3FFD0
2FFBFF40
1FFFFD00
0FFFF800
0BFFF400
07FFE000
02FFC000
07FF4000
0BFE0000
1FFD0000
2FF80000
7FF40000
BFD00000
BFC00000
7F800000
1A000000
ENDCHAR
STARTCHAR Zcaron
ENCODING 381
SWIDTH 664 0
DWIDTH 19 0
BBX 21 31 -1 -1
BITMAP
000001000500
00000B801F40
00001FE07F80
00001FF9FF80
000007FFFE00
000000FFF400
0000002FD000
000000064000
000000000000
000000000000
002FFFFFF800
003FFFFFFE00
002FFFFFFF40
001FFFFFFF40
000BAABFFF00
000001FFFD00
000007FFE000
00002FFF8000
0001FFFE0000
000BFFF80000
003FFFD00000
02FFFE000000
0BFFF4000000
2FFF80000000
3FFE005BD000
7FF81BFFE400
7FFFFFFFF400
3FFFFFFFD000
2FFFFFFE0000
0FFFFA900000
01FE90000000
ENDCHAR
STARTCHAR zcaron
ENCODING 382
SWIDTH 547 0
DWIDTH 15 0
BBX 19 29 -1 -1
BITMAP
0000400040
0001F402E0
0003FD0BF4
0002FF2FF4
0000BFFFD0
00002FFF00
000007F800
0000019000
0000000000
0000000000
0000000000
001A955500
00BFFFFF40
00BFFFFFC0
007FFFFFC0
00195BFF80
00001FFE00
0000BFF400
0007FFD000
002FFF4000
01FFF80000
0BFFD00000
2FFE000000
3FF801B400
7FE1BFFD00
7FFFFFFD00
3FFFFFE400
1FFFF90000
06FA400000
ENDCHAR
STARTCHAR circumflex
ENCODING 710
SWIDTH 754 0
DWIDTH 21 0
BBX 12 8 6 14
BITMAP
001900
00BF40
03FFE0
1FFFF8
7FE7FE
7F81FE
2E007D
040014
ENDCHAR
STARTCHAR caron
ENCODING 711
SWIDTH 754 0
DWIDTH 21 0
BBX 12 8 6 14
BITMAP
040014
2E007D
7F81FE
7FE7FE
1FFFF8
03FFE0
00BF40
001900
ENDCHAR
STARTCHAR breve
ENCODING 728
SWIDTH 754 0
DWIDTH 21 0
BBX 12 7 6 15
BITMAP
040004
2E007D
7F81FE
7FFFFF
1FFFF8
06FFE0
001500
ENDCHAR
STARTCHAR dotaccent
ENCODING 729
SWIDTH 754 0
DWIDTH 21 0
BBX 5 5 10 16
BITMAP
0400
BE00
FF80
FF40
BD00
ENDCHAR
STARTCHAR ring
ENCODING 730
SWIDTH 754 0
DWIDTH 21 0
BBX 9 9 8 14
BITMAP
006400
01FC00
0BFC00
1FFD00
7FBF00
BE7F40
FFFF40
BFFE00
2FA400
ENDCHAR
STARTCHAR ogonek
ENCODING 731
SWIDTH 754 0
DWIDTH 21 0
BBX 11 9 8 -8
BITMAP
2C0000
7C0000
BC0000
BD0000
7E0000
3FFAA0
1FFFF8
06FFF4
001550
ENDCHAR
STARTCHAR tilde
ENCODING 732
SWIDTH 754 0
DWIDTH 21 0
BBX 14 6 5 15
BITMAP
02BE02A0
0BFF8FF0
2FFFFFD0
3FAFFF80
7F0BFE00
10015000
ENDCHAR
STARTCHAR hungarumlaut
ENCODING 733
SWIDTH 754 0
DWIDTH 21 0
BBX 16 9 4 12
BITMAP
00090024
007F00BD
01FF83FF
07FF8FFF
1FFE3FF8
7FF4BFE0
7FD0FF40
7E00FD00
14005000
ENDCHAR
STARTCHAR endash
ENCODING 8211
SWIDTH 588 0
DWIDTH 16 0
BBX 15 5 0 5
BITMAP
00555540
7FFFFFE0
BFFFFFF8
7FFFFFE4
2E955400
ENDCHAR
STARTCHAR emdash
ENCODING 8212
SWIDTH 878 0
DWIDTH 25 0
BBX 23 5 0 5
BITMAP
155AAAAA9500
7FFFFFFFFFD0
7FFFFFFFFFF8
2FFFFFFFFFA4
069500000000
ENDCHAR
STARTCHAR quoteleft
ENCODING 8216
SWIDTH 203 0
DWIDTH 6 0
BBX 7 9 2 12
BITMAP
07E4
1FF8
2FF4
3FE0
7FD0
7F80
7F40
7F40
0500
ENDCHAR
STARTCHAR quoteright
ENCODING 8217
SWIDTH 199 0
DWIDTH 6 0
BBX 7 9 2 12
BITMAP
0790
0BF4
0FF4
1FF4
2FF0
7FD0
FFC0
7F40
0800
ENDCHAR
STARTCHAR quotesinglbase
ENCODING 8218
SWIDTH 204 0
DWIDTH 6 0
BBX 7 9 -3 -5
BITMAP
0740
0BF4
0FF4
1FF4
2FF0
3FE0
BFC0
BF40
1900
ENDCHAR
STARTCHAR quotedblleft
ENCODING 8220
SWIDTH 410 0
DWIDTH 11 0
BBX 13 10 2 12
BITMAP
01001000
0BD0BE00
1FF5FF80
2FF3FF40
3FE7FE00
7FC7FC00
7F8BF800
7F4BF000
7F07F000
1A005000
ENDCHAR
STARTCHAR quotedblright
ENCODING 8221
SWIDTH 425 0
DWIDTH 12 0
BBX 13 9 2 12
BITMAP
07903E00
0BF47F80
0FF4BF80
1FF4FF80
2FF2FF00
7FD7FD00
FFCFF800
7F4BE000
08014000
ENDCHAR
STARTCHAR quotedblbase
ENCODING 8222
SWIDTH 430 0
DWIDTH 12 0
BBX 13 9 -3 -5
BITMAP
07402900
0BF47F80
0FF4BF80
1FF4FF80
2FF2FF40
3FE3FE00
BFCBFC00
BF4FF400
19028000
ENDCHAR
STARTCHAR bullet
ENCODING 8226
SWIDTH 299 0
DWIDTH 8 0
BBX 6 7 1 5
BITMAP
0500
7F40
BFD0
FFE0
FFD0
BFC0
6940
ENDCHAR
STARTCHAR ellipsis
ENCODING 8230
SWIDTH 768 0
DWIDTH 22 0
BBX 21 6 -1 -1
BITMAP
000010001000
2F807E40BE00
BFC0FF81FF40
BF80FF41FF00
7F80BF00FE00
190028006400
ENDCHAR
STARTCHAR perthousand
ENCODING 8240
SWIDTH 889 0
DWIDTH 25 0
BBX 24 20 1 0
BITMAP
006400009000
01FC0007D000
07FD001FC000
1FFE007FC000
3F7F01FF4000
7E7F43FD0000
BFFF4FF40000
7FFE7FD00000
1AA1FF400000
0003FC000000
001FF4400010
007FD2E000B4
01FF0BF007F8
07FC2FF41FFC
1FF0BFF83FFD
3FC1FCFDBE7F
7F42FEFDFEFF
BF02FFFDFFFF
FE01FFE4BFF8
780055001540
ENDCHAR
STARTCHAR guilsinglleft
ENCODING 8249
SWIDTH 322 0
DWIDTH 9 0
BBX 9 13 -1 -1
BITMAP
000280
000BC0
002FC0
01FF40
1BFD00
7FF400
7F8000
3FD000
1FF400
07FD00
01FE00
002F00
000500
ENDCHAR
STARTCHAR guilsinglright
ENCODING 8250
SWIDTH 341 0
DWIDTH 10 0
BBX 9 13 -1 -1
BITMAP
1D0000
1F9000
0BF400
07FD00
01FF40
003F80
00BFC0
07FF80
1FF800
7FD000
BF0000
7C0000
200000
ENDCHAR
STARTCHAR fraction
ENCODING 8260
SWIDTH 541 0
DWIDTH 15 0
BBX 15 22 0 -1
BITMAP
00000014
00000078
000001FC
000003F8
00000BF8
00002FF0
00007FC0
0001FF40
0003FD00
000BF800
001FE000
007FC000
01FF4000
07FD0000
0FF40000
2FE00000
7F800000
7F400000
BF000000
BF000000
7E000000
14000000
ENDCHAR
STARTCHAR Euro
ENCODING 8364
SWIDTH 565 0
DWIDTH 16 0
BBX 16 17 -1 0
BITMAP
000000A4
000007FD
00007FFF
0002FFFE
001FFFF8
007FFF40
00FFF800
02FFD000
2BFFFF80
7FFFFFE0
7FFFFFE0
2FF95500
01FE9550
00FFFFF8
007FFFFD
000BFFFC
00005AA0
ENDCHAR
STARTCHAR Delta
ENCODING 8710
SWIDTH 403 0
DWIDTH 11 0
BBX 16 18 -1 -1
BITMAP
005AAAA4
02FFFFFD
01FFFFFF
00FFFEA4
0056FC00
0003F800
0007F400
000BF000
000FE000
001FD000
002FD000
003F8000
00BF4000
15FFE000
FFFFFC00
BFFFFC00
7FEA5000
14000000
ENDCHAR
STARTCHAR minus
ENCODING 8722
SWIDTH 548 0
DWIDTH 15 0
BBX 15 5 0 5
BITMAP
01555500
BFFFFFD0
FFFFFFF4
FFFFFFE0
7A555000
ENDCHAR
STARTCHAR approxequal
ENCODING 8776
SWIDTH 323 0
DWIDTH 9 0
BBX 7 21 1 -1
BITMAP
01E0
07F0
0BF8
0FF8
1FFC
1FFC
2FF8
2FF4
3FF0
7FE0
BFD0
BFD0
BFC0
BFC0
FFC0
FFC0
BFC0
7FC0
3FC0
2F80
0400
ENDCHAR
STARTCHAR fi
ENCODING 64257
SWIDTH 810 0
DWIDTH 23 0
BBX 22 18 -1 -1
BITMAP
000016FE0180
0006FFFFC7D0
01BFFFFFDBE0
0BFFFFAA4FF0
0BFFD4001FF0
03FF40001FF0
01FF00002FE0
00FE00003FD0
1AFE6A803FC0
7FFFFFE07F80
7FFFFFD07F80
3FFFFA40BF40
1FF50000BF40
1FD00000BF40
2FC000007F40
1F8000003F80
0F8000002F40
010000000400
ENDCHAR
STARTCHAR fl
ENCODING 64258
SWIDTH 1012 0
DWIDTH 28 0
BBX 29 18 -1 -1
BITMAP
000016FE06400000
0006FFFFCBF00000
01BFFFFFDFF40000
0BFFFFAA5FF00000
0BFFD4002FE00000
03FF40003FD00000
01FF00007FC00000
00FE0000BF800000
1AFE6A80FF400000
7FFFFFE1FF000000
7FFFFFD2FE000000
3FFFFA43FD000000
1FF50007FC169000
1FD00007FFFFFE00
2FC00003FFFFFF80
1F800002FFFFFF80
0F800000FFE95900
0100000015000000
ENDCHAR
STARTCHAR .notdef
ENCODING -1
SWIDTH 370 0
DWIDTH 10 0
BBX 1 1 0 0
BITMAP
00
ENDCHAR
ENDFONT
